G04 #@! TF.GenerationSoftware,KiCad,Pcbnew,(5.1.4)-1*
G04 #@! TF.CreationDate,2020-10-19T04:21:44-07:00*
G04 #@! TF.ProjectId,test-pcb,74657374-2d70-4636-922e-6b696361645f,rev?*
G04 #@! TF.SameCoordinates,Original*
G04 #@! TF.FileFunction,Legend,Bot*
G04 #@! TF.FilePolarity,Positive*
%FSLAX46Y46*%
G04 Gerber Fmt 4.6, Leading zero omitted, Abs format (unit mm)*
G04 Created by KiCad (PCBNEW (5.1.4)-1) date 2020-10-19 04:21:44*
%MOMM*%
%LPD*%
G04 APERTURE LIST*
%ADD10C,0.120000*%
%ADD11C,0.150000*%
%ADD12R,1.502000X1.302000*%
%ADD13O,1.802000X2.802000*%
%ADD14R,0.602000X2.352000*%
%ADD15R,0.652000X1.602000*%
%ADD16R,1.602000X0.652000*%
%ADD17R,1.902000X1.202000*%
%ADD18C,0.100000*%
%ADD19C,1.077000*%
%ADD20C,1.852000*%
%ADD21C,2.352000*%
%ADD22C,4.089800*%
%ADD23C,2.352000*%
%ADD24C,1.352000*%
%ADD25R,1.302000X1.002000*%
G04 APERTURE END LIST*
D10*
X52641250Y-100773500D02*
X48641250Y-100773500D01*
X52641250Y-97473500D02*
X52641250Y-100773500D01*
D11*
X31075000Y-85090000D02*
X31075000Y-90540000D01*
X38775000Y-85090000D02*
X38775000Y-90540000D01*
X31075000Y-90540000D02*
X38775000Y-90540000D01*
X43974000Y-116518750D02*
X42699000Y-116518750D01*
X54324000Y-117093750D02*
X53649000Y-117093750D01*
X54324000Y-106743750D02*
X53649000Y-106743750D01*
X43974000Y-106743750D02*
X44649000Y-106743750D01*
X43974000Y-117093750D02*
X44649000Y-117093750D01*
X43974000Y-106743750D02*
X43974000Y-107418750D01*
X54324000Y-106743750D02*
X54324000Y-107418750D01*
X54324000Y-117093750D02*
X54324000Y-116418750D01*
X43974000Y-117093750D02*
X43974000Y-116518750D01*
X35314000Y-114676000D02*
X30114000Y-114676000D01*
X30114000Y-114676000D02*
X30114000Y-119876000D01*
X30114000Y-119876000D02*
X35314000Y-119876000D01*
X35314000Y-119876000D02*
X35314000Y-114676000D01*
X33714000Y-117276000D02*
G75*
G03X33714000Y-117276000I-1000000J0D01*
G01*
D10*
X56948000Y-94825078D02*
X56948000Y-94307922D01*
X58368000Y-94825078D02*
X58368000Y-94307922D01*
X46788000Y-94571078D02*
X46788000Y-94053922D01*
X48208000Y-94571078D02*
X48208000Y-94053922D01*
X37794000Y-94229422D02*
X37794000Y-94746578D01*
X36374000Y-94229422D02*
X36374000Y-94746578D01*
X32945000Y-94873578D02*
X32945000Y-94356422D01*
X34365000Y-94873578D02*
X34365000Y-94356422D01*
X27919000Y-101183064D02*
X27919000Y-99978936D01*
X29739000Y-101183064D02*
X29739000Y-99978936D01*
X99425000Y-114168750D02*
X99425000Y-110268750D01*
X97425000Y-114168750D02*
X97425000Y-110268750D01*
X99425000Y-114168750D02*
X97425000Y-114168750D01*
X99425000Y-95056250D02*
X99425000Y-91156250D01*
X97425000Y-95056250D02*
X97425000Y-91156250D01*
X99425000Y-95056250D02*
X97425000Y-95056250D01*
X80375000Y-114168750D02*
X80375000Y-110268750D01*
X78375000Y-114168750D02*
X78375000Y-110268750D01*
X80375000Y-114168750D02*
X78375000Y-114168750D01*
X80375000Y-95181250D02*
X80375000Y-91281250D01*
X78375000Y-95181250D02*
X78375000Y-91281250D01*
X80375000Y-95181250D02*
X78375000Y-95181250D01*
X38295078Y-111041250D02*
X37777922Y-111041250D01*
X38295078Y-109621250D02*
X37777922Y-109621250D01*
X38914000Y-102135172D02*
X38914000Y-102652328D01*
X40334000Y-102135172D02*
X40334000Y-102652328D01*
X43636000Y-94277922D02*
X43636000Y-94795078D01*
X42216000Y-94277922D02*
X42216000Y-94795078D01*
X34945250Y-102135172D02*
X34945250Y-102652328D01*
X36365250Y-102135172D02*
X36365250Y-102652328D01*
X48176250Y-98864922D02*
X48176250Y-99382078D01*
X46756250Y-98864922D02*
X46756250Y-99382078D01*
X53106250Y-99382078D02*
X53106250Y-98864922D01*
X54526250Y-99382078D02*
X54526250Y-98864922D01*
X57964000Y-108208578D02*
X57964000Y-107691422D01*
X59384000Y-108208578D02*
X59384000Y-107691422D01*
D11*
X51117440Y-96649690D02*
X51117440Y-97125880D01*
X51450773Y-96125880D02*
X51117440Y-96649690D01*
X50784107Y-96125880D01*
X49926964Y-97125880D02*
X50498392Y-97125880D01*
X50212678Y-97125880D02*
X50212678Y-96125880D01*
X50307916Y-96268738D01*
X50403154Y-96363976D01*
X50498392Y-96411595D01*
X36663095Y-86574380D02*
X36663095Y-87383904D01*
X36615476Y-87479142D01*
X36567857Y-87526761D01*
X36472619Y-87574380D01*
X36282142Y-87574380D01*
X36186904Y-87526761D01*
X36139285Y-87479142D01*
X36091666Y-87383904D01*
X36091666Y-86574380D01*
X35663095Y-87526761D02*
X35520238Y-87574380D01*
X35282142Y-87574380D01*
X35186904Y-87526761D01*
X35139285Y-87479142D01*
X35091666Y-87383904D01*
X35091666Y-87288666D01*
X35139285Y-87193428D01*
X35186904Y-87145809D01*
X35282142Y-87098190D01*
X35472619Y-87050571D01*
X35567857Y-87002952D01*
X35615476Y-86955333D01*
X35663095Y-86860095D01*
X35663095Y-86764857D01*
X35615476Y-86669619D01*
X35567857Y-86622000D01*
X35472619Y-86574380D01*
X35234523Y-86574380D01*
X35091666Y-86622000D01*
X34329761Y-87050571D02*
X34186904Y-87098190D01*
X34139285Y-87145809D01*
X34091666Y-87241047D01*
X34091666Y-87383904D01*
X34139285Y-87479142D01*
X34186904Y-87526761D01*
X34282142Y-87574380D01*
X34663095Y-87574380D01*
X34663095Y-86574380D01*
X34329761Y-86574380D01*
X34234523Y-86622000D01*
X34186904Y-86669619D01*
X34139285Y-86764857D01*
X34139285Y-86860095D01*
X34186904Y-86955333D01*
X34234523Y-87002952D01*
X34329761Y-87050571D01*
X34663095Y-87050571D01*
X33139285Y-87574380D02*
X33710714Y-87574380D01*
X33424999Y-87574380D02*
X33424999Y-86574380D01*
X33520238Y-86717238D01*
X33615476Y-86812476D01*
X33710714Y-86860095D01*
X49910904Y-118821130D02*
X49910904Y-119630654D01*
X49863285Y-119725892D01*
X49815666Y-119773511D01*
X49720428Y-119821130D01*
X49529952Y-119821130D01*
X49434714Y-119773511D01*
X49387095Y-119725892D01*
X49339476Y-119630654D01*
X49339476Y-118821130D01*
X48339476Y-119821130D02*
X48910904Y-119821130D01*
X48625190Y-119821130D02*
X48625190Y-118821130D01*
X48720428Y-118963988D01*
X48815666Y-119059226D01*
X48910904Y-119106845D01*
X34047333Y-121744761D02*
X33904476Y-121792380D01*
X33666380Y-121792380D01*
X33571142Y-121744761D01*
X33523523Y-121697142D01*
X33475904Y-121601904D01*
X33475904Y-121506666D01*
X33523523Y-121411428D01*
X33571142Y-121363809D01*
X33666380Y-121316190D01*
X33856857Y-121268571D01*
X33952095Y-121220952D01*
X33999714Y-121173333D01*
X34047333Y-121078095D01*
X34047333Y-120982857D01*
X33999714Y-120887619D01*
X33952095Y-120840000D01*
X33856857Y-120792380D01*
X33618761Y-120792380D01*
X33475904Y-120840000D01*
X33142571Y-120792380D02*
X32904476Y-121792380D01*
X32714000Y-121078095D01*
X32523523Y-121792380D01*
X32285428Y-120792380D01*
X31380666Y-121792380D02*
X31952095Y-121792380D01*
X31666380Y-121792380D02*
X31666380Y-120792380D01*
X31761619Y-120935238D01*
X31856857Y-121030476D01*
X31952095Y-121078095D01*
X59760380Y-94399833D02*
X59284190Y-94066500D01*
X59760380Y-93828404D02*
X58760380Y-93828404D01*
X58760380Y-94209357D01*
X58808000Y-94304595D01*
X58855619Y-94352214D01*
X58950857Y-94399833D01*
X59093714Y-94399833D01*
X59188952Y-94352214D01*
X59236571Y-94304595D01*
X59284190Y-94209357D01*
X59284190Y-93828404D01*
X59093714Y-95256976D02*
X59760380Y-95256976D01*
X58712761Y-95018880D02*
X59427047Y-94780785D01*
X59427047Y-95399833D01*
X49600380Y-94145833D02*
X49124190Y-93812500D01*
X49600380Y-93574404D02*
X48600380Y-93574404D01*
X48600380Y-93955357D01*
X48648000Y-94050595D01*
X48695619Y-94098214D01*
X48790857Y-94145833D01*
X48933714Y-94145833D01*
X49028952Y-94098214D01*
X49076571Y-94050595D01*
X49124190Y-93955357D01*
X49124190Y-93574404D01*
X48600380Y-94479166D02*
X48600380Y-95098214D01*
X48981333Y-94764880D01*
X48981333Y-94907738D01*
X49028952Y-95002976D01*
X49076571Y-95050595D01*
X49171809Y-95098214D01*
X49409904Y-95098214D01*
X49505142Y-95050595D01*
X49552761Y-95002976D01*
X49600380Y-94907738D01*
X49600380Y-94622023D01*
X49552761Y-94526785D01*
X49505142Y-94479166D01*
X35886380Y-94321333D02*
X35410190Y-93988000D01*
X35886380Y-93749904D02*
X34886380Y-93749904D01*
X34886380Y-94130857D01*
X34934000Y-94226095D01*
X34981619Y-94273714D01*
X35076857Y-94321333D01*
X35219714Y-94321333D01*
X35314952Y-94273714D01*
X35362571Y-94226095D01*
X35410190Y-94130857D01*
X35410190Y-93749904D01*
X34981619Y-94702285D02*
X34934000Y-94749904D01*
X34886380Y-94845142D01*
X34886380Y-95083238D01*
X34934000Y-95178476D01*
X34981619Y-95226095D01*
X35076857Y-95273714D01*
X35172095Y-95273714D01*
X35314952Y-95226095D01*
X35886380Y-94654666D01*
X35886380Y-95273714D01*
X35757380Y-94448333D02*
X35281190Y-94115000D01*
X35757380Y-93876904D02*
X34757380Y-93876904D01*
X34757380Y-94257857D01*
X34805000Y-94353095D01*
X34852619Y-94400714D01*
X34947857Y-94448333D01*
X35090714Y-94448333D01*
X35185952Y-94400714D01*
X35233571Y-94353095D01*
X35281190Y-94257857D01*
X35281190Y-93876904D01*
X35757380Y-95400714D02*
X35757380Y-94829285D01*
X35757380Y-95115000D02*
X34757380Y-95115000D01*
X34900238Y-95019761D01*
X34995476Y-94924523D01*
X35043095Y-94829285D01*
X30577571Y-100247666D02*
X30577571Y-99914333D01*
X31101380Y-99914333D02*
X30101380Y-99914333D01*
X30101380Y-100390523D01*
X31101380Y-101295285D02*
X31101380Y-100723857D01*
X31101380Y-101009571D02*
X30101380Y-101009571D01*
X30244238Y-100914333D01*
X30339476Y-100819095D01*
X30387095Y-100723857D01*
X100877380Y-111180654D02*
X99877380Y-111180654D01*
X99877380Y-111418750D01*
X99925000Y-111561607D01*
X100020238Y-111656845D01*
X100115476Y-111704464D01*
X100305952Y-111752083D01*
X100448809Y-111752083D01*
X100639285Y-111704464D01*
X100734523Y-111656845D01*
X100829761Y-111561607D01*
X100877380Y-111418750D01*
X100877380Y-111180654D01*
X100210714Y-112609226D02*
X100877380Y-112609226D01*
X99829761Y-112371130D02*
X100544047Y-112133035D01*
X100544047Y-112752083D01*
X100877380Y-92068154D02*
X99877380Y-92068154D01*
X99877380Y-92306250D01*
X99925000Y-92449107D01*
X100020238Y-92544345D01*
X100115476Y-92591964D01*
X100305952Y-92639583D01*
X100448809Y-92639583D01*
X100639285Y-92591964D01*
X100734523Y-92544345D01*
X100829761Y-92449107D01*
X100877380Y-92306250D01*
X100877380Y-92068154D01*
X99877380Y-92972916D02*
X99877380Y-93591964D01*
X100258333Y-93258630D01*
X100258333Y-93401488D01*
X100305952Y-93496726D01*
X100353571Y-93544345D01*
X100448809Y-93591964D01*
X100686904Y-93591964D01*
X100782142Y-93544345D01*
X100829761Y-93496726D01*
X100877380Y-93401488D01*
X100877380Y-93115773D01*
X100829761Y-93020535D01*
X100782142Y-92972916D01*
X81827380Y-111180654D02*
X80827380Y-111180654D01*
X80827380Y-111418750D01*
X80875000Y-111561607D01*
X80970238Y-111656845D01*
X81065476Y-111704464D01*
X81255952Y-111752083D01*
X81398809Y-111752083D01*
X81589285Y-111704464D01*
X81684523Y-111656845D01*
X81779761Y-111561607D01*
X81827380Y-111418750D01*
X81827380Y-111180654D01*
X80922619Y-112133035D02*
X80875000Y-112180654D01*
X80827380Y-112275892D01*
X80827380Y-112513988D01*
X80875000Y-112609226D01*
X80922619Y-112656845D01*
X81017857Y-112704464D01*
X81113095Y-112704464D01*
X81255952Y-112656845D01*
X81827380Y-112085416D01*
X81827380Y-112704464D01*
X81827380Y-92193154D02*
X80827380Y-92193154D01*
X80827380Y-92431250D01*
X80875000Y-92574107D01*
X80970238Y-92669345D01*
X81065476Y-92716964D01*
X81255952Y-92764583D01*
X81398809Y-92764583D01*
X81589285Y-92716964D01*
X81684523Y-92669345D01*
X81779761Y-92574107D01*
X81827380Y-92431250D01*
X81827380Y-92193154D01*
X81827380Y-93716964D02*
X81827380Y-93145535D01*
X81827380Y-93431250D02*
X80827380Y-93431250D01*
X80970238Y-93336011D01*
X81065476Y-93240773D01*
X81113095Y-93145535D01*
X38203166Y-109038392D02*
X38250785Y-109086011D01*
X38393642Y-109133630D01*
X38488880Y-109133630D01*
X38631738Y-109086011D01*
X38726976Y-108990773D01*
X38774595Y-108895535D01*
X38822214Y-108705059D01*
X38822214Y-108562202D01*
X38774595Y-108371726D01*
X38726976Y-108276488D01*
X38631738Y-108181250D01*
X38488880Y-108133630D01*
X38393642Y-108133630D01*
X38250785Y-108181250D01*
X38203166Y-108228869D01*
X37869833Y-108133630D02*
X37203166Y-108133630D01*
X37631738Y-109133630D01*
X38331142Y-102227083D02*
X38378761Y-102179464D01*
X38426380Y-102036607D01*
X38426380Y-101941369D01*
X38378761Y-101798511D01*
X38283523Y-101703273D01*
X38188285Y-101655654D01*
X37997809Y-101608035D01*
X37854952Y-101608035D01*
X37664476Y-101655654D01*
X37569238Y-101703273D01*
X37474000Y-101798511D01*
X37426380Y-101941369D01*
X37426380Y-102036607D01*
X37474000Y-102179464D01*
X37521619Y-102227083D01*
X37426380Y-103084226D02*
X37426380Y-102893750D01*
X37474000Y-102798511D01*
X37521619Y-102750892D01*
X37664476Y-102655654D01*
X37854952Y-102608035D01*
X38235904Y-102608035D01*
X38331142Y-102655654D01*
X38378761Y-102703273D01*
X38426380Y-102798511D01*
X38426380Y-102988988D01*
X38378761Y-103084226D01*
X38331142Y-103131845D01*
X38235904Y-103179464D01*
X37997809Y-103179464D01*
X37902571Y-103131845D01*
X37854952Y-103084226D01*
X37807333Y-102988988D01*
X37807333Y-102798511D01*
X37854952Y-102703273D01*
X37902571Y-102655654D01*
X37997809Y-102608035D01*
X41633142Y-94369833D02*
X41680761Y-94322214D01*
X41728380Y-94179357D01*
X41728380Y-94084119D01*
X41680761Y-93941261D01*
X41585523Y-93846023D01*
X41490285Y-93798404D01*
X41299809Y-93750785D01*
X41156952Y-93750785D01*
X40966476Y-93798404D01*
X40871238Y-93846023D01*
X40776000Y-93941261D01*
X40728380Y-94084119D01*
X40728380Y-94179357D01*
X40776000Y-94322214D01*
X40823619Y-94369833D01*
X40728380Y-95274595D02*
X40728380Y-94798404D01*
X41204571Y-94750785D01*
X41156952Y-94798404D01*
X41109333Y-94893642D01*
X41109333Y-95131738D01*
X41156952Y-95226976D01*
X41204571Y-95274595D01*
X41299809Y-95322214D01*
X41537904Y-95322214D01*
X41633142Y-95274595D01*
X41680761Y-95226976D01*
X41728380Y-95131738D01*
X41728380Y-94893642D01*
X41680761Y-94798404D01*
X41633142Y-94750785D01*
X34362392Y-102227083D02*
X34410011Y-102179464D01*
X34457630Y-102036607D01*
X34457630Y-101941369D01*
X34410011Y-101798511D01*
X34314773Y-101703273D01*
X34219535Y-101655654D01*
X34029059Y-101608035D01*
X33886202Y-101608035D01*
X33695726Y-101655654D01*
X33600488Y-101703273D01*
X33505250Y-101798511D01*
X33457630Y-101941369D01*
X33457630Y-102036607D01*
X33505250Y-102179464D01*
X33552869Y-102227083D01*
X33790964Y-103084226D02*
X34457630Y-103084226D01*
X33410011Y-102846130D02*
X34124297Y-102608035D01*
X34124297Y-103227083D01*
X46173392Y-98956833D02*
X46221011Y-98909214D01*
X46268630Y-98766357D01*
X46268630Y-98671119D01*
X46221011Y-98528261D01*
X46125773Y-98433023D01*
X46030535Y-98385404D01*
X45840059Y-98337785D01*
X45697202Y-98337785D01*
X45506726Y-98385404D01*
X45411488Y-98433023D01*
X45316250Y-98528261D01*
X45268630Y-98671119D01*
X45268630Y-98766357D01*
X45316250Y-98909214D01*
X45363869Y-98956833D01*
X45268630Y-99290166D02*
X45268630Y-99909214D01*
X45649583Y-99575880D01*
X45649583Y-99718738D01*
X45697202Y-99813976D01*
X45744821Y-99861595D01*
X45840059Y-99909214D01*
X46078154Y-99909214D01*
X46173392Y-99861595D01*
X46221011Y-99813976D01*
X46268630Y-99718738D01*
X46268630Y-99433023D01*
X46221011Y-99337785D01*
X46173392Y-99290166D01*
X55823392Y-98956833D02*
X55871011Y-98909214D01*
X55918630Y-98766357D01*
X55918630Y-98671119D01*
X55871011Y-98528261D01*
X55775773Y-98433023D01*
X55680535Y-98385404D01*
X55490059Y-98337785D01*
X55347202Y-98337785D01*
X55156726Y-98385404D01*
X55061488Y-98433023D01*
X54966250Y-98528261D01*
X54918630Y-98671119D01*
X54918630Y-98766357D01*
X54966250Y-98909214D01*
X55013869Y-98956833D01*
X55013869Y-99337785D02*
X54966250Y-99385404D01*
X54918630Y-99480642D01*
X54918630Y-99718738D01*
X54966250Y-99813976D01*
X55013869Y-99861595D01*
X55109107Y-99909214D01*
X55204345Y-99909214D01*
X55347202Y-99861595D01*
X55918630Y-99290166D01*
X55918630Y-99909214D01*
X60681142Y-107783333D02*
X60728761Y-107735714D01*
X60776380Y-107592857D01*
X60776380Y-107497619D01*
X60728761Y-107354761D01*
X60633523Y-107259523D01*
X60538285Y-107211904D01*
X60347809Y-107164285D01*
X60204952Y-107164285D01*
X60014476Y-107211904D01*
X59919238Y-107259523D01*
X59824000Y-107354761D01*
X59776380Y-107497619D01*
X59776380Y-107592857D01*
X59824000Y-107735714D01*
X59871619Y-107783333D01*
X60776380Y-108735714D02*
X60776380Y-108164285D01*
X60776380Y-108450000D02*
X59776380Y-108450000D01*
X59919238Y-108354761D01*
X60014476Y-108259523D01*
X60062095Y-108164285D01*
%LPC*%
D12*
X51741250Y-98273500D03*
X49541250Y-98273500D03*
X49541250Y-99973500D03*
X51741250Y-99973500D03*
D13*
X31275000Y-85090000D03*
X38575000Y-85090000D03*
X38575000Y-89590000D03*
X31275000Y-89590000D03*
D14*
X33325000Y-89590000D03*
X34125000Y-89590000D03*
X34925000Y-89590000D03*
X35725000Y-89590000D03*
X36525000Y-89590000D03*
D15*
X45149000Y-117618750D03*
X45949000Y-117618750D03*
X46749000Y-117618750D03*
X47549000Y-117618750D03*
X48349000Y-117618750D03*
X49149000Y-117618750D03*
X49949000Y-117618750D03*
X50749000Y-117618750D03*
X51549000Y-117618750D03*
X52349000Y-117618750D03*
X53149000Y-117618750D03*
D16*
X54849000Y-115918750D03*
X54849000Y-115118750D03*
X54849000Y-114318750D03*
X54849000Y-113518750D03*
X54849000Y-112718750D03*
X54849000Y-111918750D03*
X54849000Y-111118750D03*
X54849000Y-110318750D03*
X54849000Y-109518750D03*
X54849000Y-108718750D03*
X54849000Y-107918750D03*
D15*
X53149000Y-106218750D03*
X52349000Y-106218750D03*
X51549000Y-106218750D03*
X50749000Y-106218750D03*
X49949000Y-106218750D03*
X49149000Y-106218750D03*
X48349000Y-106218750D03*
X47549000Y-106218750D03*
X46749000Y-106218750D03*
X45949000Y-106218750D03*
X45149000Y-106218750D03*
D16*
X43449000Y-107918750D03*
X43449000Y-108718750D03*
X43449000Y-109518750D03*
X43449000Y-110318750D03*
X43449000Y-111118750D03*
X43449000Y-111918750D03*
X43449000Y-112718750D03*
X43449000Y-113518750D03*
X43449000Y-114318750D03*
X43449000Y-115118750D03*
X43449000Y-115918750D03*
D17*
X35814000Y-119126000D03*
X29614000Y-115426000D03*
X35814000Y-115426000D03*
X29614000Y-119126000D03*
D18*
G36*
X58166141Y-93091797D02*
G01*
X58192278Y-93095674D01*
X58217909Y-93102094D01*
X58242788Y-93110995D01*
X58266674Y-93122293D01*
X58289337Y-93135877D01*
X58310560Y-93151617D01*
X58330139Y-93169361D01*
X58347883Y-93188940D01*
X58363623Y-93210163D01*
X58377207Y-93232826D01*
X58388505Y-93256712D01*
X58397406Y-93281591D01*
X58403826Y-93307222D01*
X58407703Y-93333359D01*
X58409000Y-93359750D01*
X58409000Y-93898250D01*
X58407703Y-93924641D01*
X58403826Y-93950778D01*
X58397406Y-93976409D01*
X58388505Y-94001288D01*
X58377207Y-94025174D01*
X58363623Y-94047837D01*
X58347883Y-94069060D01*
X58330139Y-94088639D01*
X58310560Y-94106383D01*
X58289337Y-94122123D01*
X58266674Y-94135707D01*
X58242788Y-94147005D01*
X58217909Y-94155906D01*
X58192278Y-94162326D01*
X58166141Y-94166203D01*
X58139750Y-94167500D01*
X57176250Y-94167500D01*
X57149859Y-94166203D01*
X57123722Y-94162326D01*
X57098091Y-94155906D01*
X57073212Y-94147005D01*
X57049326Y-94135707D01*
X57026663Y-94122123D01*
X57005440Y-94106383D01*
X56985861Y-94088639D01*
X56968117Y-94069060D01*
X56952377Y-94047837D01*
X56938793Y-94025174D01*
X56927495Y-94001288D01*
X56918594Y-93976409D01*
X56912174Y-93950778D01*
X56908297Y-93924641D01*
X56907000Y-93898250D01*
X56907000Y-93359750D01*
X56908297Y-93333359D01*
X56912174Y-93307222D01*
X56918594Y-93281591D01*
X56927495Y-93256712D01*
X56938793Y-93232826D01*
X56952377Y-93210163D01*
X56968117Y-93188940D01*
X56985861Y-93169361D01*
X57005440Y-93151617D01*
X57026663Y-93135877D01*
X57049326Y-93122293D01*
X57073212Y-93110995D01*
X57098091Y-93102094D01*
X57123722Y-93095674D01*
X57149859Y-93091797D01*
X57176250Y-93090500D01*
X58139750Y-93090500D01*
X58166141Y-93091797D01*
X58166141Y-93091797D01*
G37*
D19*
X57658000Y-93629000D03*
D18*
G36*
X58166141Y-94966797D02*
G01*
X58192278Y-94970674D01*
X58217909Y-94977094D01*
X58242788Y-94985995D01*
X58266674Y-94997293D01*
X58289337Y-95010877D01*
X58310560Y-95026617D01*
X58330139Y-95044361D01*
X58347883Y-95063940D01*
X58363623Y-95085163D01*
X58377207Y-95107826D01*
X58388505Y-95131712D01*
X58397406Y-95156591D01*
X58403826Y-95182222D01*
X58407703Y-95208359D01*
X58409000Y-95234750D01*
X58409000Y-95773250D01*
X58407703Y-95799641D01*
X58403826Y-95825778D01*
X58397406Y-95851409D01*
X58388505Y-95876288D01*
X58377207Y-95900174D01*
X58363623Y-95922837D01*
X58347883Y-95944060D01*
X58330139Y-95963639D01*
X58310560Y-95981383D01*
X58289337Y-95997123D01*
X58266674Y-96010707D01*
X58242788Y-96022005D01*
X58217909Y-96030906D01*
X58192278Y-96037326D01*
X58166141Y-96041203D01*
X58139750Y-96042500D01*
X57176250Y-96042500D01*
X57149859Y-96041203D01*
X57123722Y-96037326D01*
X57098091Y-96030906D01*
X57073212Y-96022005D01*
X57049326Y-96010707D01*
X57026663Y-95997123D01*
X57005440Y-95981383D01*
X56985861Y-95963639D01*
X56968117Y-95944060D01*
X56952377Y-95922837D01*
X56938793Y-95900174D01*
X56927495Y-95876288D01*
X56918594Y-95851409D01*
X56912174Y-95825778D01*
X56908297Y-95799641D01*
X56907000Y-95773250D01*
X56907000Y-95234750D01*
X56908297Y-95208359D01*
X56912174Y-95182222D01*
X56918594Y-95156591D01*
X56927495Y-95131712D01*
X56938793Y-95107826D01*
X56952377Y-95085163D01*
X56968117Y-95063940D01*
X56985861Y-95044361D01*
X57005440Y-95026617D01*
X57026663Y-95010877D01*
X57049326Y-94997293D01*
X57073212Y-94985995D01*
X57098091Y-94977094D01*
X57123722Y-94970674D01*
X57149859Y-94966797D01*
X57176250Y-94965500D01*
X58139750Y-94965500D01*
X58166141Y-94966797D01*
X58166141Y-94966797D01*
G37*
D19*
X57658000Y-95504000D03*
D18*
G36*
X48006141Y-92837797D02*
G01*
X48032278Y-92841674D01*
X48057909Y-92848094D01*
X48082788Y-92856995D01*
X48106674Y-92868293D01*
X48129337Y-92881877D01*
X48150560Y-92897617D01*
X48170139Y-92915361D01*
X48187883Y-92934940D01*
X48203623Y-92956163D01*
X48217207Y-92978826D01*
X48228505Y-93002712D01*
X48237406Y-93027591D01*
X48243826Y-93053222D01*
X48247703Y-93079359D01*
X48249000Y-93105750D01*
X48249000Y-93644250D01*
X48247703Y-93670641D01*
X48243826Y-93696778D01*
X48237406Y-93722409D01*
X48228505Y-93747288D01*
X48217207Y-93771174D01*
X48203623Y-93793837D01*
X48187883Y-93815060D01*
X48170139Y-93834639D01*
X48150560Y-93852383D01*
X48129337Y-93868123D01*
X48106674Y-93881707D01*
X48082788Y-93893005D01*
X48057909Y-93901906D01*
X48032278Y-93908326D01*
X48006141Y-93912203D01*
X47979750Y-93913500D01*
X47016250Y-93913500D01*
X46989859Y-93912203D01*
X46963722Y-93908326D01*
X46938091Y-93901906D01*
X46913212Y-93893005D01*
X46889326Y-93881707D01*
X46866663Y-93868123D01*
X46845440Y-93852383D01*
X46825861Y-93834639D01*
X46808117Y-93815060D01*
X46792377Y-93793837D01*
X46778793Y-93771174D01*
X46767495Y-93747288D01*
X46758594Y-93722409D01*
X46752174Y-93696778D01*
X46748297Y-93670641D01*
X46747000Y-93644250D01*
X46747000Y-93105750D01*
X46748297Y-93079359D01*
X46752174Y-93053222D01*
X46758594Y-93027591D01*
X46767495Y-93002712D01*
X46778793Y-92978826D01*
X46792377Y-92956163D01*
X46808117Y-92934940D01*
X46825861Y-92915361D01*
X46845440Y-92897617D01*
X46866663Y-92881877D01*
X46889326Y-92868293D01*
X46913212Y-92856995D01*
X46938091Y-92848094D01*
X46963722Y-92841674D01*
X46989859Y-92837797D01*
X47016250Y-92836500D01*
X47979750Y-92836500D01*
X48006141Y-92837797D01*
X48006141Y-92837797D01*
G37*
D19*
X47498000Y-93375000D03*
D18*
G36*
X48006141Y-94712797D02*
G01*
X48032278Y-94716674D01*
X48057909Y-94723094D01*
X48082788Y-94731995D01*
X48106674Y-94743293D01*
X48129337Y-94756877D01*
X48150560Y-94772617D01*
X48170139Y-94790361D01*
X48187883Y-94809940D01*
X48203623Y-94831163D01*
X48217207Y-94853826D01*
X48228505Y-94877712D01*
X48237406Y-94902591D01*
X48243826Y-94928222D01*
X48247703Y-94954359D01*
X48249000Y-94980750D01*
X48249000Y-95519250D01*
X48247703Y-95545641D01*
X48243826Y-95571778D01*
X48237406Y-95597409D01*
X48228505Y-95622288D01*
X48217207Y-95646174D01*
X48203623Y-95668837D01*
X48187883Y-95690060D01*
X48170139Y-95709639D01*
X48150560Y-95727383D01*
X48129337Y-95743123D01*
X48106674Y-95756707D01*
X48082788Y-95768005D01*
X48057909Y-95776906D01*
X48032278Y-95783326D01*
X48006141Y-95787203D01*
X47979750Y-95788500D01*
X47016250Y-95788500D01*
X46989859Y-95787203D01*
X46963722Y-95783326D01*
X46938091Y-95776906D01*
X46913212Y-95768005D01*
X46889326Y-95756707D01*
X46866663Y-95743123D01*
X46845440Y-95727383D01*
X46825861Y-95709639D01*
X46808117Y-95690060D01*
X46792377Y-95668837D01*
X46778793Y-95646174D01*
X46767495Y-95622288D01*
X46758594Y-95597409D01*
X46752174Y-95571778D01*
X46748297Y-95545641D01*
X46747000Y-95519250D01*
X46747000Y-94980750D01*
X46748297Y-94954359D01*
X46752174Y-94928222D01*
X46758594Y-94902591D01*
X46767495Y-94877712D01*
X46778793Y-94853826D01*
X46792377Y-94831163D01*
X46808117Y-94809940D01*
X46825861Y-94790361D01*
X46845440Y-94772617D01*
X46866663Y-94756877D01*
X46889326Y-94743293D01*
X46913212Y-94731995D01*
X46938091Y-94723094D01*
X46963722Y-94716674D01*
X46989859Y-94712797D01*
X47016250Y-94711500D01*
X47979750Y-94711500D01*
X48006141Y-94712797D01*
X48006141Y-94712797D01*
G37*
D19*
X47498000Y-95250000D03*
D18*
G36*
X37592141Y-94888297D02*
G01*
X37618278Y-94892174D01*
X37643909Y-94898594D01*
X37668788Y-94907495D01*
X37692674Y-94918793D01*
X37715337Y-94932377D01*
X37736560Y-94948117D01*
X37756139Y-94965861D01*
X37773883Y-94985440D01*
X37789623Y-95006663D01*
X37803207Y-95029326D01*
X37814505Y-95053212D01*
X37823406Y-95078091D01*
X37829826Y-95103722D01*
X37833703Y-95129859D01*
X37835000Y-95156250D01*
X37835000Y-95694750D01*
X37833703Y-95721141D01*
X37829826Y-95747278D01*
X37823406Y-95772909D01*
X37814505Y-95797788D01*
X37803207Y-95821674D01*
X37789623Y-95844337D01*
X37773883Y-95865560D01*
X37756139Y-95885139D01*
X37736560Y-95902883D01*
X37715337Y-95918623D01*
X37692674Y-95932207D01*
X37668788Y-95943505D01*
X37643909Y-95952406D01*
X37618278Y-95958826D01*
X37592141Y-95962703D01*
X37565750Y-95964000D01*
X36602250Y-95964000D01*
X36575859Y-95962703D01*
X36549722Y-95958826D01*
X36524091Y-95952406D01*
X36499212Y-95943505D01*
X36475326Y-95932207D01*
X36452663Y-95918623D01*
X36431440Y-95902883D01*
X36411861Y-95885139D01*
X36394117Y-95865560D01*
X36378377Y-95844337D01*
X36364793Y-95821674D01*
X36353495Y-95797788D01*
X36344594Y-95772909D01*
X36338174Y-95747278D01*
X36334297Y-95721141D01*
X36333000Y-95694750D01*
X36333000Y-95156250D01*
X36334297Y-95129859D01*
X36338174Y-95103722D01*
X36344594Y-95078091D01*
X36353495Y-95053212D01*
X36364793Y-95029326D01*
X36378377Y-95006663D01*
X36394117Y-94985440D01*
X36411861Y-94965861D01*
X36431440Y-94948117D01*
X36452663Y-94932377D01*
X36475326Y-94918793D01*
X36499212Y-94907495D01*
X36524091Y-94898594D01*
X36549722Y-94892174D01*
X36575859Y-94888297D01*
X36602250Y-94887000D01*
X37565750Y-94887000D01*
X37592141Y-94888297D01*
X37592141Y-94888297D01*
G37*
D19*
X37084000Y-95425500D03*
D18*
G36*
X37592141Y-93013297D02*
G01*
X37618278Y-93017174D01*
X37643909Y-93023594D01*
X37668788Y-93032495D01*
X37692674Y-93043793D01*
X37715337Y-93057377D01*
X37736560Y-93073117D01*
X37756139Y-93090861D01*
X37773883Y-93110440D01*
X37789623Y-93131663D01*
X37803207Y-93154326D01*
X37814505Y-93178212D01*
X37823406Y-93203091D01*
X37829826Y-93228722D01*
X37833703Y-93254859D01*
X37835000Y-93281250D01*
X37835000Y-93819750D01*
X37833703Y-93846141D01*
X37829826Y-93872278D01*
X37823406Y-93897909D01*
X37814505Y-93922788D01*
X37803207Y-93946674D01*
X37789623Y-93969337D01*
X37773883Y-93990560D01*
X37756139Y-94010139D01*
X37736560Y-94027883D01*
X37715337Y-94043623D01*
X37692674Y-94057207D01*
X37668788Y-94068505D01*
X37643909Y-94077406D01*
X37618278Y-94083826D01*
X37592141Y-94087703D01*
X37565750Y-94089000D01*
X36602250Y-94089000D01*
X36575859Y-94087703D01*
X36549722Y-94083826D01*
X36524091Y-94077406D01*
X36499212Y-94068505D01*
X36475326Y-94057207D01*
X36452663Y-94043623D01*
X36431440Y-94027883D01*
X36411861Y-94010139D01*
X36394117Y-93990560D01*
X36378377Y-93969337D01*
X36364793Y-93946674D01*
X36353495Y-93922788D01*
X36344594Y-93897909D01*
X36338174Y-93872278D01*
X36334297Y-93846141D01*
X36333000Y-93819750D01*
X36333000Y-93281250D01*
X36334297Y-93254859D01*
X36338174Y-93228722D01*
X36344594Y-93203091D01*
X36353495Y-93178212D01*
X36364793Y-93154326D01*
X36378377Y-93131663D01*
X36394117Y-93110440D01*
X36411861Y-93090861D01*
X36431440Y-93073117D01*
X36452663Y-93057377D01*
X36475326Y-93043793D01*
X36499212Y-93032495D01*
X36524091Y-93023594D01*
X36549722Y-93017174D01*
X36575859Y-93013297D01*
X36602250Y-93012000D01*
X37565750Y-93012000D01*
X37592141Y-93013297D01*
X37592141Y-93013297D01*
G37*
D19*
X37084000Y-93550500D03*
D18*
G36*
X34163141Y-93140297D02*
G01*
X34189278Y-93144174D01*
X34214909Y-93150594D01*
X34239788Y-93159495D01*
X34263674Y-93170793D01*
X34286337Y-93184377D01*
X34307560Y-93200117D01*
X34327139Y-93217861D01*
X34344883Y-93237440D01*
X34360623Y-93258663D01*
X34374207Y-93281326D01*
X34385505Y-93305212D01*
X34394406Y-93330091D01*
X34400826Y-93355722D01*
X34404703Y-93381859D01*
X34406000Y-93408250D01*
X34406000Y-93946750D01*
X34404703Y-93973141D01*
X34400826Y-93999278D01*
X34394406Y-94024909D01*
X34385505Y-94049788D01*
X34374207Y-94073674D01*
X34360623Y-94096337D01*
X34344883Y-94117560D01*
X34327139Y-94137139D01*
X34307560Y-94154883D01*
X34286337Y-94170623D01*
X34263674Y-94184207D01*
X34239788Y-94195505D01*
X34214909Y-94204406D01*
X34189278Y-94210826D01*
X34163141Y-94214703D01*
X34136750Y-94216000D01*
X33173250Y-94216000D01*
X33146859Y-94214703D01*
X33120722Y-94210826D01*
X33095091Y-94204406D01*
X33070212Y-94195505D01*
X33046326Y-94184207D01*
X33023663Y-94170623D01*
X33002440Y-94154883D01*
X32982861Y-94137139D01*
X32965117Y-94117560D01*
X32949377Y-94096337D01*
X32935793Y-94073674D01*
X32924495Y-94049788D01*
X32915594Y-94024909D01*
X32909174Y-93999278D01*
X32905297Y-93973141D01*
X32904000Y-93946750D01*
X32904000Y-93408250D01*
X32905297Y-93381859D01*
X32909174Y-93355722D01*
X32915594Y-93330091D01*
X32924495Y-93305212D01*
X32935793Y-93281326D01*
X32949377Y-93258663D01*
X32965117Y-93237440D01*
X32982861Y-93217861D01*
X33002440Y-93200117D01*
X33023663Y-93184377D01*
X33046326Y-93170793D01*
X33070212Y-93159495D01*
X33095091Y-93150594D01*
X33120722Y-93144174D01*
X33146859Y-93140297D01*
X33173250Y-93139000D01*
X34136750Y-93139000D01*
X34163141Y-93140297D01*
X34163141Y-93140297D01*
G37*
D19*
X33655000Y-93677500D03*
D18*
G36*
X34163141Y-95015297D02*
G01*
X34189278Y-95019174D01*
X34214909Y-95025594D01*
X34239788Y-95034495D01*
X34263674Y-95045793D01*
X34286337Y-95059377D01*
X34307560Y-95075117D01*
X34327139Y-95092861D01*
X34344883Y-95112440D01*
X34360623Y-95133663D01*
X34374207Y-95156326D01*
X34385505Y-95180212D01*
X34394406Y-95205091D01*
X34400826Y-95230722D01*
X34404703Y-95256859D01*
X34406000Y-95283250D01*
X34406000Y-95821750D01*
X34404703Y-95848141D01*
X34400826Y-95874278D01*
X34394406Y-95899909D01*
X34385505Y-95924788D01*
X34374207Y-95948674D01*
X34360623Y-95971337D01*
X34344883Y-95992560D01*
X34327139Y-96012139D01*
X34307560Y-96029883D01*
X34286337Y-96045623D01*
X34263674Y-96059207D01*
X34239788Y-96070505D01*
X34214909Y-96079406D01*
X34189278Y-96085826D01*
X34163141Y-96089703D01*
X34136750Y-96091000D01*
X33173250Y-96091000D01*
X33146859Y-96089703D01*
X33120722Y-96085826D01*
X33095091Y-96079406D01*
X33070212Y-96070505D01*
X33046326Y-96059207D01*
X33023663Y-96045623D01*
X33002440Y-96029883D01*
X32982861Y-96012139D01*
X32965117Y-95992560D01*
X32949377Y-95971337D01*
X32935793Y-95948674D01*
X32924495Y-95924788D01*
X32915594Y-95899909D01*
X32909174Y-95874278D01*
X32905297Y-95848141D01*
X32904000Y-95821750D01*
X32904000Y-95283250D01*
X32905297Y-95256859D01*
X32909174Y-95230722D01*
X32915594Y-95205091D01*
X32924495Y-95180212D01*
X32935793Y-95156326D01*
X32949377Y-95133663D01*
X32965117Y-95112440D01*
X32982861Y-95092861D01*
X33002440Y-95075117D01*
X33023663Y-95059377D01*
X33046326Y-95045793D01*
X33070212Y-95034495D01*
X33095091Y-95025594D01*
X33120722Y-95019174D01*
X33146859Y-95015297D01*
X33173250Y-95014000D01*
X34136750Y-95014000D01*
X34163141Y-95015297D01*
X34163141Y-95015297D01*
G37*
D19*
X33655000Y-95552500D03*
D20*
X95567500Y-111918750D03*
X85407500Y-111918750D03*
D21*
X87987500Y-107918750D03*
D22*
X90487500Y-111918750D03*
D21*
X87332501Y-108648750D03*
D23*
X86677500Y-109378750D02*
X87987502Y-107918750D01*
D21*
X93027500Y-106838750D03*
X93007500Y-107128750D03*
D23*
X92987500Y-107418750D02*
X93027500Y-106838750D01*
D20*
X95567500Y-92868750D03*
X85407500Y-92868750D03*
D21*
X87987500Y-88868750D03*
D22*
X90487500Y-92868750D03*
D21*
X87332501Y-89598750D03*
D23*
X86677500Y-90328750D02*
X87987502Y-88868750D01*
D21*
X93027500Y-87788750D03*
X93007500Y-88078750D03*
D23*
X92987500Y-88368750D02*
X93027500Y-87788750D01*
D20*
X76517500Y-111918750D03*
X66357500Y-111918750D03*
D21*
X68937500Y-107918750D03*
D22*
X71437500Y-111918750D03*
D21*
X68282501Y-108648750D03*
D23*
X67627500Y-109378750D02*
X68937502Y-107918750D01*
D21*
X73977500Y-106838750D03*
X73957500Y-107128750D03*
D23*
X73937500Y-107418750D02*
X73977500Y-106838750D01*
D20*
X76517500Y-92868750D03*
X66357500Y-92868750D03*
D21*
X68937500Y-88868750D03*
D22*
X71437500Y-92868750D03*
D21*
X68282501Y-89598750D03*
D23*
X67627500Y-90328750D02*
X68937502Y-88868750D01*
D21*
X73977500Y-87788750D03*
X73957500Y-88078750D03*
D23*
X73937500Y-88368750D02*
X73977500Y-87788750D01*
D18*
G36*
X29511104Y-98506302D02*
G01*
X29537352Y-98510196D01*
X29563093Y-98516643D01*
X29588078Y-98525583D01*
X29612066Y-98536928D01*
X29634826Y-98550571D01*
X29656140Y-98566378D01*
X29675802Y-98584198D01*
X29693622Y-98603860D01*
X29709429Y-98625174D01*
X29723072Y-98647934D01*
X29734417Y-98671922D01*
X29743357Y-98696907D01*
X29749804Y-98722648D01*
X29753698Y-98748896D01*
X29755000Y-98775400D01*
X29755000Y-99586600D01*
X29753698Y-99613104D01*
X29749804Y-99639352D01*
X29743357Y-99665093D01*
X29734417Y-99690078D01*
X29723072Y-99714066D01*
X29709429Y-99736826D01*
X29693622Y-99758140D01*
X29675802Y-99777802D01*
X29656140Y-99795622D01*
X29634826Y-99811429D01*
X29612066Y-99825072D01*
X29588078Y-99836417D01*
X29563093Y-99845357D01*
X29537352Y-99851804D01*
X29511104Y-99855698D01*
X29484600Y-99857000D01*
X28173400Y-99857000D01*
X28146896Y-99855698D01*
X28120648Y-99851804D01*
X28094907Y-99845357D01*
X28069922Y-99836417D01*
X28045934Y-99825072D01*
X28023174Y-99811429D01*
X28001860Y-99795622D01*
X27982198Y-99777802D01*
X27964378Y-99758140D01*
X27948571Y-99736826D01*
X27934928Y-99714066D01*
X27923583Y-99690078D01*
X27914643Y-99665093D01*
X27908196Y-99639352D01*
X27904302Y-99613104D01*
X27903000Y-99586600D01*
X27903000Y-98775400D01*
X27904302Y-98748896D01*
X27908196Y-98722648D01*
X27914643Y-98696907D01*
X27923583Y-98671922D01*
X27934928Y-98647934D01*
X27948571Y-98625174D01*
X27964378Y-98603860D01*
X27982198Y-98584198D01*
X28001860Y-98566378D01*
X28023174Y-98550571D01*
X28045934Y-98536928D01*
X28069922Y-98525583D01*
X28094907Y-98516643D01*
X28120648Y-98510196D01*
X28146896Y-98506302D01*
X28173400Y-98505000D01*
X29484600Y-98505000D01*
X29511104Y-98506302D01*
X29511104Y-98506302D01*
G37*
D24*
X28829000Y-99181000D03*
D18*
G36*
X29511104Y-101306302D02*
G01*
X29537352Y-101310196D01*
X29563093Y-101316643D01*
X29588078Y-101325583D01*
X29612066Y-101336928D01*
X29634826Y-101350571D01*
X29656140Y-101366378D01*
X29675802Y-101384198D01*
X29693622Y-101403860D01*
X29709429Y-101425174D01*
X29723072Y-101447934D01*
X29734417Y-101471922D01*
X29743357Y-101496907D01*
X29749804Y-101522648D01*
X29753698Y-101548896D01*
X29755000Y-101575400D01*
X29755000Y-102386600D01*
X29753698Y-102413104D01*
X29749804Y-102439352D01*
X29743357Y-102465093D01*
X29734417Y-102490078D01*
X29723072Y-102514066D01*
X29709429Y-102536826D01*
X29693622Y-102558140D01*
X29675802Y-102577802D01*
X29656140Y-102595622D01*
X29634826Y-102611429D01*
X29612066Y-102625072D01*
X29588078Y-102636417D01*
X29563093Y-102645357D01*
X29537352Y-102651804D01*
X29511104Y-102655698D01*
X29484600Y-102657000D01*
X28173400Y-102657000D01*
X28146896Y-102655698D01*
X28120648Y-102651804D01*
X28094907Y-102645357D01*
X28069922Y-102636417D01*
X28045934Y-102625072D01*
X28023174Y-102611429D01*
X28001860Y-102595622D01*
X27982198Y-102577802D01*
X27964378Y-102558140D01*
X27948571Y-102536826D01*
X27934928Y-102514066D01*
X27923583Y-102490078D01*
X27914643Y-102465093D01*
X27908196Y-102439352D01*
X27904302Y-102413104D01*
X27903000Y-102386600D01*
X27903000Y-101575400D01*
X27904302Y-101548896D01*
X27908196Y-101522648D01*
X27914643Y-101496907D01*
X27923583Y-101471922D01*
X27934928Y-101447934D01*
X27948571Y-101425174D01*
X27964378Y-101403860D01*
X27982198Y-101384198D01*
X28001860Y-101366378D01*
X28023174Y-101350571D01*
X28045934Y-101336928D01*
X28069922Y-101325583D01*
X28094907Y-101316643D01*
X28120648Y-101310196D01*
X28146896Y-101306302D01*
X28173400Y-101305000D01*
X29484600Y-101305000D01*
X29511104Y-101306302D01*
X29511104Y-101306302D01*
G37*
D24*
X28829000Y-101981000D03*
D25*
X98425000Y-110268750D03*
X98425000Y-113568750D03*
X98425000Y-91156250D03*
X98425000Y-94456250D03*
X79375000Y-110268750D03*
X79375000Y-113568750D03*
X79375000Y-91281250D03*
X79375000Y-94581250D03*
D18*
G36*
X37394641Y-109581547D02*
G01*
X37420778Y-109585424D01*
X37446409Y-109591844D01*
X37471288Y-109600745D01*
X37495174Y-109612043D01*
X37517837Y-109625627D01*
X37539060Y-109641367D01*
X37558639Y-109659111D01*
X37576383Y-109678690D01*
X37592123Y-109699913D01*
X37605707Y-109722576D01*
X37617005Y-109746462D01*
X37625906Y-109771341D01*
X37632326Y-109796972D01*
X37636203Y-109823109D01*
X37637500Y-109849500D01*
X37637500Y-110813000D01*
X37636203Y-110839391D01*
X37632326Y-110865528D01*
X37625906Y-110891159D01*
X37617005Y-110916038D01*
X37605707Y-110939924D01*
X37592123Y-110962587D01*
X37576383Y-110983810D01*
X37558639Y-111003389D01*
X37539060Y-111021133D01*
X37517837Y-111036873D01*
X37495174Y-111050457D01*
X37471288Y-111061755D01*
X37446409Y-111070656D01*
X37420778Y-111077076D01*
X37394641Y-111080953D01*
X37368250Y-111082250D01*
X36829750Y-111082250D01*
X36803359Y-111080953D01*
X36777222Y-111077076D01*
X36751591Y-111070656D01*
X36726712Y-111061755D01*
X36702826Y-111050457D01*
X36680163Y-111036873D01*
X36658940Y-111021133D01*
X36639361Y-111003389D01*
X36621617Y-110983810D01*
X36605877Y-110962587D01*
X36592293Y-110939924D01*
X36580995Y-110916038D01*
X36572094Y-110891159D01*
X36565674Y-110865528D01*
X36561797Y-110839391D01*
X36560500Y-110813000D01*
X36560500Y-109849500D01*
X36561797Y-109823109D01*
X36565674Y-109796972D01*
X36572094Y-109771341D01*
X36580995Y-109746462D01*
X36592293Y-109722576D01*
X36605877Y-109699913D01*
X36621617Y-109678690D01*
X36639361Y-109659111D01*
X36658940Y-109641367D01*
X36680163Y-109625627D01*
X36702826Y-109612043D01*
X36726712Y-109600745D01*
X36751591Y-109591844D01*
X36777222Y-109585424D01*
X36803359Y-109581547D01*
X36829750Y-109580250D01*
X37368250Y-109580250D01*
X37394641Y-109581547D01*
X37394641Y-109581547D01*
G37*
D19*
X37099000Y-110331250D03*
D18*
G36*
X39269641Y-109581547D02*
G01*
X39295778Y-109585424D01*
X39321409Y-109591844D01*
X39346288Y-109600745D01*
X39370174Y-109612043D01*
X39392837Y-109625627D01*
X39414060Y-109641367D01*
X39433639Y-109659111D01*
X39451383Y-109678690D01*
X39467123Y-109699913D01*
X39480707Y-109722576D01*
X39492005Y-109746462D01*
X39500906Y-109771341D01*
X39507326Y-109796972D01*
X39511203Y-109823109D01*
X39512500Y-109849500D01*
X39512500Y-110813000D01*
X39511203Y-110839391D01*
X39507326Y-110865528D01*
X39500906Y-110891159D01*
X39492005Y-110916038D01*
X39480707Y-110939924D01*
X39467123Y-110962587D01*
X39451383Y-110983810D01*
X39433639Y-111003389D01*
X39414060Y-111021133D01*
X39392837Y-111036873D01*
X39370174Y-111050457D01*
X39346288Y-111061755D01*
X39321409Y-111070656D01*
X39295778Y-111077076D01*
X39269641Y-111080953D01*
X39243250Y-111082250D01*
X38704750Y-111082250D01*
X38678359Y-111080953D01*
X38652222Y-111077076D01*
X38626591Y-111070656D01*
X38601712Y-111061755D01*
X38577826Y-111050457D01*
X38555163Y-111036873D01*
X38533940Y-111021133D01*
X38514361Y-111003389D01*
X38496617Y-110983810D01*
X38480877Y-110962587D01*
X38467293Y-110939924D01*
X38455995Y-110916038D01*
X38447094Y-110891159D01*
X38440674Y-110865528D01*
X38436797Y-110839391D01*
X38435500Y-110813000D01*
X38435500Y-109849500D01*
X38436797Y-109823109D01*
X38440674Y-109796972D01*
X38447094Y-109771341D01*
X38455995Y-109746462D01*
X38467293Y-109722576D01*
X38480877Y-109699913D01*
X38496617Y-109678690D01*
X38514361Y-109659111D01*
X38533940Y-109641367D01*
X38555163Y-109625627D01*
X38577826Y-109612043D01*
X38601712Y-109600745D01*
X38626591Y-109591844D01*
X38652222Y-109585424D01*
X38678359Y-109581547D01*
X38704750Y-109580250D01*
X39243250Y-109580250D01*
X39269641Y-109581547D01*
X39269641Y-109581547D01*
G37*
D19*
X38974000Y-110331250D03*
D18*
G36*
X40132141Y-100919047D02*
G01*
X40158278Y-100922924D01*
X40183909Y-100929344D01*
X40208788Y-100938245D01*
X40232674Y-100949543D01*
X40255337Y-100963127D01*
X40276560Y-100978867D01*
X40296139Y-100996611D01*
X40313883Y-101016190D01*
X40329623Y-101037413D01*
X40343207Y-101060076D01*
X40354505Y-101083962D01*
X40363406Y-101108841D01*
X40369826Y-101134472D01*
X40373703Y-101160609D01*
X40375000Y-101187000D01*
X40375000Y-101725500D01*
X40373703Y-101751891D01*
X40369826Y-101778028D01*
X40363406Y-101803659D01*
X40354505Y-101828538D01*
X40343207Y-101852424D01*
X40329623Y-101875087D01*
X40313883Y-101896310D01*
X40296139Y-101915889D01*
X40276560Y-101933633D01*
X40255337Y-101949373D01*
X40232674Y-101962957D01*
X40208788Y-101974255D01*
X40183909Y-101983156D01*
X40158278Y-101989576D01*
X40132141Y-101993453D01*
X40105750Y-101994750D01*
X39142250Y-101994750D01*
X39115859Y-101993453D01*
X39089722Y-101989576D01*
X39064091Y-101983156D01*
X39039212Y-101974255D01*
X39015326Y-101962957D01*
X38992663Y-101949373D01*
X38971440Y-101933633D01*
X38951861Y-101915889D01*
X38934117Y-101896310D01*
X38918377Y-101875087D01*
X38904793Y-101852424D01*
X38893495Y-101828538D01*
X38884594Y-101803659D01*
X38878174Y-101778028D01*
X38874297Y-101751891D01*
X38873000Y-101725500D01*
X38873000Y-101187000D01*
X38874297Y-101160609D01*
X38878174Y-101134472D01*
X38884594Y-101108841D01*
X38893495Y-101083962D01*
X38904793Y-101060076D01*
X38918377Y-101037413D01*
X38934117Y-101016190D01*
X38951861Y-100996611D01*
X38971440Y-100978867D01*
X38992663Y-100963127D01*
X39015326Y-100949543D01*
X39039212Y-100938245D01*
X39064091Y-100929344D01*
X39089722Y-100922924D01*
X39115859Y-100919047D01*
X39142250Y-100917750D01*
X40105750Y-100917750D01*
X40132141Y-100919047D01*
X40132141Y-100919047D01*
G37*
D19*
X39624000Y-101456250D03*
D18*
G36*
X40132141Y-102794047D02*
G01*
X40158278Y-102797924D01*
X40183909Y-102804344D01*
X40208788Y-102813245D01*
X40232674Y-102824543D01*
X40255337Y-102838127D01*
X40276560Y-102853867D01*
X40296139Y-102871611D01*
X40313883Y-102891190D01*
X40329623Y-102912413D01*
X40343207Y-102935076D01*
X40354505Y-102958962D01*
X40363406Y-102983841D01*
X40369826Y-103009472D01*
X40373703Y-103035609D01*
X40375000Y-103062000D01*
X40375000Y-103600500D01*
X40373703Y-103626891D01*
X40369826Y-103653028D01*
X40363406Y-103678659D01*
X40354505Y-103703538D01*
X40343207Y-103727424D01*
X40329623Y-103750087D01*
X40313883Y-103771310D01*
X40296139Y-103790889D01*
X40276560Y-103808633D01*
X40255337Y-103824373D01*
X40232674Y-103837957D01*
X40208788Y-103849255D01*
X40183909Y-103858156D01*
X40158278Y-103864576D01*
X40132141Y-103868453D01*
X40105750Y-103869750D01*
X39142250Y-103869750D01*
X39115859Y-103868453D01*
X39089722Y-103864576D01*
X39064091Y-103858156D01*
X39039212Y-103849255D01*
X39015326Y-103837957D01*
X38992663Y-103824373D01*
X38971440Y-103808633D01*
X38951861Y-103790889D01*
X38934117Y-103771310D01*
X38918377Y-103750087D01*
X38904793Y-103727424D01*
X38893495Y-103703538D01*
X38884594Y-103678659D01*
X38878174Y-103653028D01*
X38874297Y-103626891D01*
X38873000Y-103600500D01*
X38873000Y-103062000D01*
X38874297Y-103035609D01*
X38878174Y-103009472D01*
X38884594Y-102983841D01*
X38893495Y-102958962D01*
X38904793Y-102935076D01*
X38918377Y-102912413D01*
X38934117Y-102891190D01*
X38951861Y-102871611D01*
X38971440Y-102853867D01*
X38992663Y-102838127D01*
X39015326Y-102824543D01*
X39039212Y-102813245D01*
X39064091Y-102804344D01*
X39089722Y-102797924D01*
X39115859Y-102794047D01*
X39142250Y-102792750D01*
X40105750Y-102792750D01*
X40132141Y-102794047D01*
X40132141Y-102794047D01*
G37*
D19*
X39624000Y-103331250D03*
D18*
G36*
X43434141Y-94936797D02*
G01*
X43460278Y-94940674D01*
X43485909Y-94947094D01*
X43510788Y-94955995D01*
X43534674Y-94967293D01*
X43557337Y-94980877D01*
X43578560Y-94996617D01*
X43598139Y-95014361D01*
X43615883Y-95033940D01*
X43631623Y-95055163D01*
X43645207Y-95077826D01*
X43656505Y-95101712D01*
X43665406Y-95126591D01*
X43671826Y-95152222D01*
X43675703Y-95178359D01*
X43677000Y-95204750D01*
X43677000Y-95743250D01*
X43675703Y-95769641D01*
X43671826Y-95795778D01*
X43665406Y-95821409D01*
X43656505Y-95846288D01*
X43645207Y-95870174D01*
X43631623Y-95892837D01*
X43615883Y-95914060D01*
X43598139Y-95933639D01*
X43578560Y-95951383D01*
X43557337Y-95967123D01*
X43534674Y-95980707D01*
X43510788Y-95992005D01*
X43485909Y-96000906D01*
X43460278Y-96007326D01*
X43434141Y-96011203D01*
X43407750Y-96012500D01*
X42444250Y-96012500D01*
X42417859Y-96011203D01*
X42391722Y-96007326D01*
X42366091Y-96000906D01*
X42341212Y-95992005D01*
X42317326Y-95980707D01*
X42294663Y-95967123D01*
X42273440Y-95951383D01*
X42253861Y-95933639D01*
X42236117Y-95914060D01*
X42220377Y-95892837D01*
X42206793Y-95870174D01*
X42195495Y-95846288D01*
X42186594Y-95821409D01*
X42180174Y-95795778D01*
X42176297Y-95769641D01*
X42175000Y-95743250D01*
X42175000Y-95204750D01*
X42176297Y-95178359D01*
X42180174Y-95152222D01*
X42186594Y-95126591D01*
X42195495Y-95101712D01*
X42206793Y-95077826D01*
X42220377Y-95055163D01*
X42236117Y-95033940D01*
X42253861Y-95014361D01*
X42273440Y-94996617D01*
X42294663Y-94980877D01*
X42317326Y-94967293D01*
X42341212Y-94955995D01*
X42366091Y-94947094D01*
X42391722Y-94940674D01*
X42417859Y-94936797D01*
X42444250Y-94935500D01*
X43407750Y-94935500D01*
X43434141Y-94936797D01*
X43434141Y-94936797D01*
G37*
D19*
X42926000Y-95474000D03*
D18*
G36*
X43434141Y-93061797D02*
G01*
X43460278Y-93065674D01*
X43485909Y-93072094D01*
X43510788Y-93080995D01*
X43534674Y-93092293D01*
X43557337Y-93105877D01*
X43578560Y-93121617D01*
X43598139Y-93139361D01*
X43615883Y-93158940D01*
X43631623Y-93180163D01*
X43645207Y-93202826D01*
X43656505Y-93226712D01*
X43665406Y-93251591D01*
X43671826Y-93277222D01*
X43675703Y-93303359D01*
X43677000Y-93329750D01*
X43677000Y-93868250D01*
X43675703Y-93894641D01*
X43671826Y-93920778D01*
X43665406Y-93946409D01*
X43656505Y-93971288D01*
X43645207Y-93995174D01*
X43631623Y-94017837D01*
X43615883Y-94039060D01*
X43598139Y-94058639D01*
X43578560Y-94076383D01*
X43557337Y-94092123D01*
X43534674Y-94105707D01*
X43510788Y-94117005D01*
X43485909Y-94125906D01*
X43460278Y-94132326D01*
X43434141Y-94136203D01*
X43407750Y-94137500D01*
X42444250Y-94137500D01*
X42417859Y-94136203D01*
X42391722Y-94132326D01*
X42366091Y-94125906D01*
X42341212Y-94117005D01*
X42317326Y-94105707D01*
X42294663Y-94092123D01*
X42273440Y-94076383D01*
X42253861Y-94058639D01*
X42236117Y-94039060D01*
X42220377Y-94017837D01*
X42206793Y-93995174D01*
X42195495Y-93971288D01*
X42186594Y-93946409D01*
X42180174Y-93920778D01*
X42176297Y-93894641D01*
X42175000Y-93868250D01*
X42175000Y-93329750D01*
X42176297Y-93303359D01*
X42180174Y-93277222D01*
X42186594Y-93251591D01*
X42195495Y-93226712D01*
X42206793Y-93202826D01*
X42220377Y-93180163D01*
X42236117Y-93158940D01*
X42253861Y-93139361D01*
X42273440Y-93121617D01*
X42294663Y-93105877D01*
X42317326Y-93092293D01*
X42341212Y-93080995D01*
X42366091Y-93072094D01*
X42391722Y-93065674D01*
X42417859Y-93061797D01*
X42444250Y-93060500D01*
X43407750Y-93060500D01*
X43434141Y-93061797D01*
X43434141Y-93061797D01*
G37*
D19*
X42926000Y-93599000D03*
D18*
G36*
X36163391Y-100919047D02*
G01*
X36189528Y-100922924D01*
X36215159Y-100929344D01*
X36240038Y-100938245D01*
X36263924Y-100949543D01*
X36286587Y-100963127D01*
X36307810Y-100978867D01*
X36327389Y-100996611D01*
X36345133Y-101016190D01*
X36360873Y-101037413D01*
X36374457Y-101060076D01*
X36385755Y-101083962D01*
X36394656Y-101108841D01*
X36401076Y-101134472D01*
X36404953Y-101160609D01*
X36406250Y-101187000D01*
X36406250Y-101725500D01*
X36404953Y-101751891D01*
X36401076Y-101778028D01*
X36394656Y-101803659D01*
X36385755Y-101828538D01*
X36374457Y-101852424D01*
X36360873Y-101875087D01*
X36345133Y-101896310D01*
X36327389Y-101915889D01*
X36307810Y-101933633D01*
X36286587Y-101949373D01*
X36263924Y-101962957D01*
X36240038Y-101974255D01*
X36215159Y-101983156D01*
X36189528Y-101989576D01*
X36163391Y-101993453D01*
X36137000Y-101994750D01*
X35173500Y-101994750D01*
X35147109Y-101993453D01*
X35120972Y-101989576D01*
X35095341Y-101983156D01*
X35070462Y-101974255D01*
X35046576Y-101962957D01*
X35023913Y-101949373D01*
X35002690Y-101933633D01*
X34983111Y-101915889D01*
X34965367Y-101896310D01*
X34949627Y-101875087D01*
X34936043Y-101852424D01*
X34924745Y-101828538D01*
X34915844Y-101803659D01*
X34909424Y-101778028D01*
X34905547Y-101751891D01*
X34904250Y-101725500D01*
X34904250Y-101187000D01*
X34905547Y-101160609D01*
X34909424Y-101134472D01*
X34915844Y-101108841D01*
X34924745Y-101083962D01*
X34936043Y-101060076D01*
X34949627Y-101037413D01*
X34965367Y-101016190D01*
X34983111Y-100996611D01*
X35002690Y-100978867D01*
X35023913Y-100963127D01*
X35046576Y-100949543D01*
X35070462Y-100938245D01*
X35095341Y-100929344D01*
X35120972Y-100922924D01*
X35147109Y-100919047D01*
X35173500Y-100917750D01*
X36137000Y-100917750D01*
X36163391Y-100919047D01*
X36163391Y-100919047D01*
G37*
D19*
X35655250Y-101456250D03*
D18*
G36*
X36163391Y-102794047D02*
G01*
X36189528Y-102797924D01*
X36215159Y-102804344D01*
X36240038Y-102813245D01*
X36263924Y-102824543D01*
X36286587Y-102838127D01*
X36307810Y-102853867D01*
X36327389Y-102871611D01*
X36345133Y-102891190D01*
X36360873Y-102912413D01*
X36374457Y-102935076D01*
X36385755Y-102958962D01*
X36394656Y-102983841D01*
X36401076Y-103009472D01*
X36404953Y-103035609D01*
X36406250Y-103062000D01*
X36406250Y-103600500D01*
X36404953Y-103626891D01*
X36401076Y-103653028D01*
X36394656Y-103678659D01*
X36385755Y-103703538D01*
X36374457Y-103727424D01*
X36360873Y-103750087D01*
X36345133Y-103771310D01*
X36327389Y-103790889D01*
X36307810Y-103808633D01*
X36286587Y-103824373D01*
X36263924Y-103837957D01*
X36240038Y-103849255D01*
X36215159Y-103858156D01*
X36189528Y-103864576D01*
X36163391Y-103868453D01*
X36137000Y-103869750D01*
X35173500Y-103869750D01*
X35147109Y-103868453D01*
X35120972Y-103864576D01*
X35095341Y-103858156D01*
X35070462Y-103849255D01*
X35046576Y-103837957D01*
X35023913Y-103824373D01*
X35002690Y-103808633D01*
X34983111Y-103790889D01*
X34965367Y-103771310D01*
X34949627Y-103750087D01*
X34936043Y-103727424D01*
X34924745Y-103703538D01*
X34915844Y-103678659D01*
X34909424Y-103653028D01*
X34905547Y-103626891D01*
X34904250Y-103600500D01*
X34904250Y-103062000D01*
X34905547Y-103035609D01*
X34909424Y-103009472D01*
X34915844Y-102983841D01*
X34924745Y-102958962D01*
X34936043Y-102935076D01*
X34949627Y-102912413D01*
X34965367Y-102891190D01*
X34983111Y-102871611D01*
X35002690Y-102853867D01*
X35023913Y-102838127D01*
X35046576Y-102824543D01*
X35070462Y-102813245D01*
X35095341Y-102804344D01*
X35120972Y-102797924D01*
X35147109Y-102794047D01*
X35173500Y-102792750D01*
X36137000Y-102792750D01*
X36163391Y-102794047D01*
X36163391Y-102794047D01*
G37*
D19*
X35655250Y-103331250D03*
D18*
G36*
X47974391Y-99523797D02*
G01*
X48000528Y-99527674D01*
X48026159Y-99534094D01*
X48051038Y-99542995D01*
X48074924Y-99554293D01*
X48097587Y-99567877D01*
X48118810Y-99583617D01*
X48138389Y-99601361D01*
X48156133Y-99620940D01*
X48171873Y-99642163D01*
X48185457Y-99664826D01*
X48196755Y-99688712D01*
X48205656Y-99713591D01*
X48212076Y-99739222D01*
X48215953Y-99765359D01*
X48217250Y-99791750D01*
X48217250Y-100330250D01*
X48215953Y-100356641D01*
X48212076Y-100382778D01*
X48205656Y-100408409D01*
X48196755Y-100433288D01*
X48185457Y-100457174D01*
X48171873Y-100479837D01*
X48156133Y-100501060D01*
X48138389Y-100520639D01*
X48118810Y-100538383D01*
X48097587Y-100554123D01*
X48074924Y-100567707D01*
X48051038Y-100579005D01*
X48026159Y-100587906D01*
X48000528Y-100594326D01*
X47974391Y-100598203D01*
X47948000Y-100599500D01*
X46984500Y-100599500D01*
X46958109Y-100598203D01*
X46931972Y-100594326D01*
X46906341Y-100587906D01*
X46881462Y-100579005D01*
X46857576Y-100567707D01*
X46834913Y-100554123D01*
X46813690Y-100538383D01*
X46794111Y-100520639D01*
X46776367Y-100501060D01*
X46760627Y-100479837D01*
X46747043Y-100457174D01*
X46735745Y-100433288D01*
X46726844Y-100408409D01*
X46720424Y-100382778D01*
X46716547Y-100356641D01*
X46715250Y-100330250D01*
X46715250Y-99791750D01*
X46716547Y-99765359D01*
X46720424Y-99739222D01*
X46726844Y-99713591D01*
X46735745Y-99688712D01*
X46747043Y-99664826D01*
X46760627Y-99642163D01*
X46776367Y-99620940D01*
X46794111Y-99601361D01*
X46813690Y-99583617D01*
X46834913Y-99567877D01*
X46857576Y-99554293D01*
X46881462Y-99542995D01*
X46906341Y-99534094D01*
X46931972Y-99527674D01*
X46958109Y-99523797D01*
X46984500Y-99522500D01*
X47948000Y-99522500D01*
X47974391Y-99523797D01*
X47974391Y-99523797D01*
G37*
D19*
X47466250Y-100061000D03*
D18*
G36*
X47974391Y-97648797D02*
G01*
X48000528Y-97652674D01*
X48026159Y-97659094D01*
X48051038Y-97667995D01*
X48074924Y-97679293D01*
X48097587Y-97692877D01*
X48118810Y-97708617D01*
X48138389Y-97726361D01*
X48156133Y-97745940D01*
X48171873Y-97767163D01*
X48185457Y-97789826D01*
X48196755Y-97813712D01*
X48205656Y-97838591D01*
X48212076Y-97864222D01*
X48215953Y-97890359D01*
X48217250Y-97916750D01*
X48217250Y-98455250D01*
X48215953Y-98481641D01*
X48212076Y-98507778D01*
X48205656Y-98533409D01*
X48196755Y-98558288D01*
X48185457Y-98582174D01*
X48171873Y-98604837D01*
X48156133Y-98626060D01*
X48138389Y-98645639D01*
X48118810Y-98663383D01*
X48097587Y-98679123D01*
X48074924Y-98692707D01*
X48051038Y-98704005D01*
X48026159Y-98712906D01*
X48000528Y-98719326D01*
X47974391Y-98723203D01*
X47948000Y-98724500D01*
X46984500Y-98724500D01*
X46958109Y-98723203D01*
X46931972Y-98719326D01*
X46906341Y-98712906D01*
X46881462Y-98704005D01*
X46857576Y-98692707D01*
X46834913Y-98679123D01*
X46813690Y-98663383D01*
X46794111Y-98645639D01*
X46776367Y-98626060D01*
X46760627Y-98604837D01*
X46747043Y-98582174D01*
X46735745Y-98558288D01*
X46726844Y-98533409D01*
X46720424Y-98507778D01*
X46716547Y-98481641D01*
X46715250Y-98455250D01*
X46715250Y-97916750D01*
X46716547Y-97890359D01*
X46720424Y-97864222D01*
X46726844Y-97838591D01*
X46735745Y-97813712D01*
X46747043Y-97789826D01*
X46760627Y-97767163D01*
X46776367Y-97745940D01*
X46794111Y-97726361D01*
X46813690Y-97708617D01*
X46834913Y-97692877D01*
X46857576Y-97679293D01*
X46881462Y-97667995D01*
X46906341Y-97659094D01*
X46931972Y-97652674D01*
X46958109Y-97648797D01*
X46984500Y-97647500D01*
X47948000Y-97647500D01*
X47974391Y-97648797D01*
X47974391Y-97648797D01*
G37*
D19*
X47466250Y-98186000D03*
D18*
G36*
X54324391Y-97648797D02*
G01*
X54350528Y-97652674D01*
X54376159Y-97659094D01*
X54401038Y-97667995D01*
X54424924Y-97679293D01*
X54447587Y-97692877D01*
X54468810Y-97708617D01*
X54488389Y-97726361D01*
X54506133Y-97745940D01*
X54521873Y-97767163D01*
X54535457Y-97789826D01*
X54546755Y-97813712D01*
X54555656Y-97838591D01*
X54562076Y-97864222D01*
X54565953Y-97890359D01*
X54567250Y-97916750D01*
X54567250Y-98455250D01*
X54565953Y-98481641D01*
X54562076Y-98507778D01*
X54555656Y-98533409D01*
X54546755Y-98558288D01*
X54535457Y-98582174D01*
X54521873Y-98604837D01*
X54506133Y-98626060D01*
X54488389Y-98645639D01*
X54468810Y-98663383D01*
X54447587Y-98679123D01*
X54424924Y-98692707D01*
X54401038Y-98704005D01*
X54376159Y-98712906D01*
X54350528Y-98719326D01*
X54324391Y-98723203D01*
X54298000Y-98724500D01*
X53334500Y-98724500D01*
X53308109Y-98723203D01*
X53281972Y-98719326D01*
X53256341Y-98712906D01*
X53231462Y-98704005D01*
X53207576Y-98692707D01*
X53184913Y-98679123D01*
X53163690Y-98663383D01*
X53144111Y-98645639D01*
X53126367Y-98626060D01*
X53110627Y-98604837D01*
X53097043Y-98582174D01*
X53085745Y-98558288D01*
X53076844Y-98533409D01*
X53070424Y-98507778D01*
X53066547Y-98481641D01*
X53065250Y-98455250D01*
X53065250Y-97916750D01*
X53066547Y-97890359D01*
X53070424Y-97864222D01*
X53076844Y-97838591D01*
X53085745Y-97813712D01*
X53097043Y-97789826D01*
X53110627Y-97767163D01*
X53126367Y-97745940D01*
X53144111Y-97726361D01*
X53163690Y-97708617D01*
X53184913Y-97692877D01*
X53207576Y-97679293D01*
X53231462Y-97667995D01*
X53256341Y-97659094D01*
X53281972Y-97652674D01*
X53308109Y-97648797D01*
X53334500Y-97647500D01*
X54298000Y-97647500D01*
X54324391Y-97648797D01*
X54324391Y-97648797D01*
G37*
D19*
X53816250Y-98186000D03*
D18*
G36*
X54324391Y-99523797D02*
G01*
X54350528Y-99527674D01*
X54376159Y-99534094D01*
X54401038Y-99542995D01*
X54424924Y-99554293D01*
X54447587Y-99567877D01*
X54468810Y-99583617D01*
X54488389Y-99601361D01*
X54506133Y-99620940D01*
X54521873Y-99642163D01*
X54535457Y-99664826D01*
X54546755Y-99688712D01*
X54555656Y-99713591D01*
X54562076Y-99739222D01*
X54565953Y-99765359D01*
X54567250Y-99791750D01*
X54567250Y-100330250D01*
X54565953Y-100356641D01*
X54562076Y-100382778D01*
X54555656Y-100408409D01*
X54546755Y-100433288D01*
X54535457Y-100457174D01*
X54521873Y-100479837D01*
X54506133Y-100501060D01*
X54488389Y-100520639D01*
X54468810Y-100538383D01*
X54447587Y-100554123D01*
X54424924Y-100567707D01*
X54401038Y-100579005D01*
X54376159Y-100587906D01*
X54350528Y-100594326D01*
X54324391Y-100598203D01*
X54298000Y-100599500D01*
X53334500Y-100599500D01*
X53308109Y-100598203D01*
X53281972Y-100594326D01*
X53256341Y-100587906D01*
X53231462Y-100579005D01*
X53207576Y-100567707D01*
X53184913Y-100554123D01*
X53163690Y-100538383D01*
X53144111Y-100520639D01*
X53126367Y-100501060D01*
X53110627Y-100479837D01*
X53097043Y-100457174D01*
X53085745Y-100433288D01*
X53076844Y-100408409D01*
X53070424Y-100382778D01*
X53066547Y-100356641D01*
X53065250Y-100330250D01*
X53065250Y-99791750D01*
X53066547Y-99765359D01*
X53070424Y-99739222D01*
X53076844Y-99713591D01*
X53085745Y-99688712D01*
X53097043Y-99664826D01*
X53110627Y-99642163D01*
X53126367Y-99620940D01*
X53144111Y-99601361D01*
X53163690Y-99583617D01*
X53184913Y-99567877D01*
X53207576Y-99554293D01*
X53231462Y-99542995D01*
X53256341Y-99534094D01*
X53281972Y-99527674D01*
X53308109Y-99523797D01*
X53334500Y-99522500D01*
X54298000Y-99522500D01*
X54324391Y-99523797D01*
X54324391Y-99523797D01*
G37*
D19*
X53816250Y-100061000D03*
D18*
G36*
X59182141Y-106475297D02*
G01*
X59208278Y-106479174D01*
X59233909Y-106485594D01*
X59258788Y-106494495D01*
X59282674Y-106505793D01*
X59305337Y-106519377D01*
X59326560Y-106535117D01*
X59346139Y-106552861D01*
X59363883Y-106572440D01*
X59379623Y-106593663D01*
X59393207Y-106616326D01*
X59404505Y-106640212D01*
X59413406Y-106665091D01*
X59419826Y-106690722D01*
X59423703Y-106716859D01*
X59425000Y-106743250D01*
X59425000Y-107281750D01*
X59423703Y-107308141D01*
X59419826Y-107334278D01*
X59413406Y-107359909D01*
X59404505Y-107384788D01*
X59393207Y-107408674D01*
X59379623Y-107431337D01*
X59363883Y-107452560D01*
X59346139Y-107472139D01*
X59326560Y-107489883D01*
X59305337Y-107505623D01*
X59282674Y-107519207D01*
X59258788Y-107530505D01*
X59233909Y-107539406D01*
X59208278Y-107545826D01*
X59182141Y-107549703D01*
X59155750Y-107551000D01*
X58192250Y-107551000D01*
X58165859Y-107549703D01*
X58139722Y-107545826D01*
X58114091Y-107539406D01*
X58089212Y-107530505D01*
X58065326Y-107519207D01*
X58042663Y-107505623D01*
X58021440Y-107489883D01*
X58001861Y-107472139D01*
X57984117Y-107452560D01*
X57968377Y-107431337D01*
X57954793Y-107408674D01*
X57943495Y-107384788D01*
X57934594Y-107359909D01*
X57928174Y-107334278D01*
X57924297Y-107308141D01*
X57923000Y-107281750D01*
X57923000Y-106743250D01*
X57924297Y-106716859D01*
X57928174Y-106690722D01*
X57934594Y-106665091D01*
X57943495Y-106640212D01*
X57954793Y-106616326D01*
X57968377Y-106593663D01*
X57984117Y-106572440D01*
X58001861Y-106552861D01*
X58021440Y-106535117D01*
X58042663Y-106519377D01*
X58065326Y-106505793D01*
X58089212Y-106494495D01*
X58114091Y-106485594D01*
X58139722Y-106479174D01*
X58165859Y-106475297D01*
X58192250Y-106474000D01*
X59155750Y-106474000D01*
X59182141Y-106475297D01*
X59182141Y-106475297D01*
G37*
D19*
X58674000Y-107012500D03*
D18*
G36*
X59182141Y-108350297D02*
G01*
X59208278Y-108354174D01*
X59233909Y-108360594D01*
X59258788Y-108369495D01*
X59282674Y-108380793D01*
X59305337Y-108394377D01*
X59326560Y-108410117D01*
X59346139Y-108427861D01*
X59363883Y-108447440D01*
X59379623Y-108468663D01*
X59393207Y-108491326D01*
X59404505Y-108515212D01*
X59413406Y-108540091D01*
X59419826Y-108565722D01*
X59423703Y-108591859D01*
X59425000Y-108618250D01*
X59425000Y-109156750D01*
X59423703Y-109183141D01*
X59419826Y-109209278D01*
X59413406Y-109234909D01*
X59404505Y-109259788D01*
X59393207Y-109283674D01*
X59379623Y-109306337D01*
X59363883Y-109327560D01*
X59346139Y-109347139D01*
X59326560Y-109364883D01*
X59305337Y-109380623D01*
X59282674Y-109394207D01*
X59258788Y-109405505D01*
X59233909Y-109414406D01*
X59208278Y-109420826D01*
X59182141Y-109424703D01*
X59155750Y-109426000D01*
X58192250Y-109426000D01*
X58165859Y-109424703D01*
X58139722Y-109420826D01*
X58114091Y-109414406D01*
X58089212Y-109405505D01*
X58065326Y-109394207D01*
X58042663Y-109380623D01*
X58021440Y-109364883D01*
X58001861Y-109347139D01*
X57984117Y-109327560D01*
X57968377Y-109306337D01*
X57954793Y-109283674D01*
X57943495Y-109259788D01*
X57934594Y-109234909D01*
X57928174Y-109209278D01*
X57924297Y-109183141D01*
X57923000Y-109156750D01*
X57923000Y-108618250D01*
X57924297Y-108591859D01*
X57928174Y-108565722D01*
X57934594Y-108540091D01*
X57943495Y-108515212D01*
X57954793Y-108491326D01*
X57968377Y-108468663D01*
X57984117Y-108447440D01*
X58001861Y-108427861D01*
X58021440Y-108410117D01*
X58042663Y-108394377D01*
X58065326Y-108380793D01*
X58089212Y-108369495D01*
X58114091Y-108360594D01*
X58139722Y-108354174D01*
X58165859Y-108350297D01*
X58192250Y-108349000D01*
X59155750Y-108349000D01*
X59182141Y-108350297D01*
X59182141Y-108350297D01*
G37*
D19*
X58674000Y-108887500D03*
M02*
