G04 #@! TF.GenerationSoftware,KiCad,Pcbnew,(5.1.4)-1*
G04 #@! TF.CreationDate,2020-10-19T04:22:10-07:00*
G04 #@! TF.ProjectId,test-pcb,74657374-2d70-4636-922e-6b696361645f,rev?*
G04 #@! TF.SameCoordinates,Original*
G04 #@! TF.FileFunction,Paste,Bot*
G04 #@! TF.FilePolarity,Positive*
%FSLAX46Y46*%
G04 Gerber Fmt 4.6, Leading zero omitted, Abs format (unit mm)*
G04 Created by KiCad (PCBNEW (5.1.4)-1) date 2020-10-19 04:22:10*
%MOMM*%
%LPD*%
G04 APERTURE LIST*
%ADD10R,1.400000X1.200000*%
%ADD11R,0.500000X2.250000*%
%ADD12R,0.550000X1.500000*%
%ADD13R,1.500000X0.550000*%
%ADD14R,1.800000X1.100000*%
%ADD15C,0.100000*%
%ADD16C,0.975000*%
%ADD17C,1.250000*%
%ADD18R,1.200000X0.900000*%
G04 APERTURE END LIST*
D10*
X51741250Y-98273500D03*
X49541250Y-98273500D03*
X49541250Y-99973500D03*
X51741250Y-99973500D03*
D11*
X33325000Y-89590000D03*
X34125000Y-89590000D03*
X34925000Y-89590000D03*
X35725000Y-89590000D03*
X36525000Y-89590000D03*
D12*
X45149000Y-117618750D03*
X45949000Y-117618750D03*
X46749000Y-117618750D03*
X47549000Y-117618750D03*
X48349000Y-117618750D03*
X49149000Y-117618750D03*
X49949000Y-117618750D03*
X50749000Y-117618750D03*
X51549000Y-117618750D03*
X52349000Y-117618750D03*
X53149000Y-117618750D03*
D13*
X54849000Y-115918750D03*
X54849000Y-115118750D03*
X54849000Y-114318750D03*
X54849000Y-113518750D03*
X54849000Y-112718750D03*
X54849000Y-111918750D03*
X54849000Y-111118750D03*
X54849000Y-110318750D03*
X54849000Y-109518750D03*
X54849000Y-108718750D03*
X54849000Y-107918750D03*
D12*
X53149000Y-106218750D03*
X52349000Y-106218750D03*
X51549000Y-106218750D03*
X50749000Y-106218750D03*
X49949000Y-106218750D03*
X49149000Y-106218750D03*
X48349000Y-106218750D03*
X47549000Y-106218750D03*
X46749000Y-106218750D03*
X45949000Y-106218750D03*
X45149000Y-106218750D03*
D13*
X43449000Y-107918750D03*
X43449000Y-108718750D03*
X43449000Y-109518750D03*
X43449000Y-110318750D03*
X43449000Y-111118750D03*
X43449000Y-111918750D03*
X43449000Y-112718750D03*
X43449000Y-113518750D03*
X43449000Y-114318750D03*
X43449000Y-115118750D03*
X43449000Y-115918750D03*
D14*
X35814000Y-119126000D03*
X29614000Y-115426000D03*
X35814000Y-115426000D03*
X29614000Y-119126000D03*
D15*
G36*
X58138142Y-93142674D02*
G01*
X58161803Y-93146184D01*
X58185007Y-93151996D01*
X58207529Y-93160054D01*
X58229153Y-93170282D01*
X58249670Y-93182579D01*
X58268883Y-93196829D01*
X58286607Y-93212893D01*
X58302671Y-93230617D01*
X58316921Y-93249830D01*
X58329218Y-93270347D01*
X58339446Y-93291971D01*
X58347504Y-93314493D01*
X58353316Y-93337697D01*
X58356826Y-93361358D01*
X58358000Y-93385250D01*
X58358000Y-93872750D01*
X58356826Y-93896642D01*
X58353316Y-93920303D01*
X58347504Y-93943507D01*
X58339446Y-93966029D01*
X58329218Y-93987653D01*
X58316921Y-94008170D01*
X58302671Y-94027383D01*
X58286607Y-94045107D01*
X58268883Y-94061171D01*
X58249670Y-94075421D01*
X58229153Y-94087718D01*
X58207529Y-94097946D01*
X58185007Y-94106004D01*
X58161803Y-94111816D01*
X58138142Y-94115326D01*
X58114250Y-94116500D01*
X57201750Y-94116500D01*
X57177858Y-94115326D01*
X57154197Y-94111816D01*
X57130993Y-94106004D01*
X57108471Y-94097946D01*
X57086847Y-94087718D01*
X57066330Y-94075421D01*
X57047117Y-94061171D01*
X57029393Y-94045107D01*
X57013329Y-94027383D01*
X56999079Y-94008170D01*
X56986782Y-93987653D01*
X56976554Y-93966029D01*
X56968496Y-93943507D01*
X56962684Y-93920303D01*
X56959174Y-93896642D01*
X56958000Y-93872750D01*
X56958000Y-93385250D01*
X56959174Y-93361358D01*
X56962684Y-93337697D01*
X56968496Y-93314493D01*
X56976554Y-93291971D01*
X56986782Y-93270347D01*
X56999079Y-93249830D01*
X57013329Y-93230617D01*
X57029393Y-93212893D01*
X57047117Y-93196829D01*
X57066330Y-93182579D01*
X57086847Y-93170282D01*
X57108471Y-93160054D01*
X57130993Y-93151996D01*
X57154197Y-93146184D01*
X57177858Y-93142674D01*
X57201750Y-93141500D01*
X58114250Y-93141500D01*
X58138142Y-93142674D01*
X58138142Y-93142674D01*
G37*
D16*
X57658000Y-93629000D03*
D15*
G36*
X58138142Y-95017674D02*
G01*
X58161803Y-95021184D01*
X58185007Y-95026996D01*
X58207529Y-95035054D01*
X58229153Y-95045282D01*
X58249670Y-95057579D01*
X58268883Y-95071829D01*
X58286607Y-95087893D01*
X58302671Y-95105617D01*
X58316921Y-95124830D01*
X58329218Y-95145347D01*
X58339446Y-95166971D01*
X58347504Y-95189493D01*
X58353316Y-95212697D01*
X58356826Y-95236358D01*
X58358000Y-95260250D01*
X58358000Y-95747750D01*
X58356826Y-95771642D01*
X58353316Y-95795303D01*
X58347504Y-95818507D01*
X58339446Y-95841029D01*
X58329218Y-95862653D01*
X58316921Y-95883170D01*
X58302671Y-95902383D01*
X58286607Y-95920107D01*
X58268883Y-95936171D01*
X58249670Y-95950421D01*
X58229153Y-95962718D01*
X58207529Y-95972946D01*
X58185007Y-95981004D01*
X58161803Y-95986816D01*
X58138142Y-95990326D01*
X58114250Y-95991500D01*
X57201750Y-95991500D01*
X57177858Y-95990326D01*
X57154197Y-95986816D01*
X57130993Y-95981004D01*
X57108471Y-95972946D01*
X57086847Y-95962718D01*
X57066330Y-95950421D01*
X57047117Y-95936171D01*
X57029393Y-95920107D01*
X57013329Y-95902383D01*
X56999079Y-95883170D01*
X56986782Y-95862653D01*
X56976554Y-95841029D01*
X56968496Y-95818507D01*
X56962684Y-95795303D01*
X56959174Y-95771642D01*
X56958000Y-95747750D01*
X56958000Y-95260250D01*
X56959174Y-95236358D01*
X56962684Y-95212697D01*
X56968496Y-95189493D01*
X56976554Y-95166971D01*
X56986782Y-95145347D01*
X56999079Y-95124830D01*
X57013329Y-95105617D01*
X57029393Y-95087893D01*
X57047117Y-95071829D01*
X57066330Y-95057579D01*
X57086847Y-95045282D01*
X57108471Y-95035054D01*
X57130993Y-95026996D01*
X57154197Y-95021184D01*
X57177858Y-95017674D01*
X57201750Y-95016500D01*
X58114250Y-95016500D01*
X58138142Y-95017674D01*
X58138142Y-95017674D01*
G37*
D16*
X57658000Y-95504000D03*
D15*
G36*
X47978142Y-92888674D02*
G01*
X48001803Y-92892184D01*
X48025007Y-92897996D01*
X48047529Y-92906054D01*
X48069153Y-92916282D01*
X48089670Y-92928579D01*
X48108883Y-92942829D01*
X48126607Y-92958893D01*
X48142671Y-92976617D01*
X48156921Y-92995830D01*
X48169218Y-93016347D01*
X48179446Y-93037971D01*
X48187504Y-93060493D01*
X48193316Y-93083697D01*
X48196826Y-93107358D01*
X48198000Y-93131250D01*
X48198000Y-93618750D01*
X48196826Y-93642642D01*
X48193316Y-93666303D01*
X48187504Y-93689507D01*
X48179446Y-93712029D01*
X48169218Y-93733653D01*
X48156921Y-93754170D01*
X48142671Y-93773383D01*
X48126607Y-93791107D01*
X48108883Y-93807171D01*
X48089670Y-93821421D01*
X48069153Y-93833718D01*
X48047529Y-93843946D01*
X48025007Y-93852004D01*
X48001803Y-93857816D01*
X47978142Y-93861326D01*
X47954250Y-93862500D01*
X47041750Y-93862500D01*
X47017858Y-93861326D01*
X46994197Y-93857816D01*
X46970993Y-93852004D01*
X46948471Y-93843946D01*
X46926847Y-93833718D01*
X46906330Y-93821421D01*
X46887117Y-93807171D01*
X46869393Y-93791107D01*
X46853329Y-93773383D01*
X46839079Y-93754170D01*
X46826782Y-93733653D01*
X46816554Y-93712029D01*
X46808496Y-93689507D01*
X46802684Y-93666303D01*
X46799174Y-93642642D01*
X46798000Y-93618750D01*
X46798000Y-93131250D01*
X46799174Y-93107358D01*
X46802684Y-93083697D01*
X46808496Y-93060493D01*
X46816554Y-93037971D01*
X46826782Y-93016347D01*
X46839079Y-92995830D01*
X46853329Y-92976617D01*
X46869393Y-92958893D01*
X46887117Y-92942829D01*
X46906330Y-92928579D01*
X46926847Y-92916282D01*
X46948471Y-92906054D01*
X46970993Y-92897996D01*
X46994197Y-92892184D01*
X47017858Y-92888674D01*
X47041750Y-92887500D01*
X47954250Y-92887500D01*
X47978142Y-92888674D01*
X47978142Y-92888674D01*
G37*
D16*
X47498000Y-93375000D03*
D15*
G36*
X47978142Y-94763674D02*
G01*
X48001803Y-94767184D01*
X48025007Y-94772996D01*
X48047529Y-94781054D01*
X48069153Y-94791282D01*
X48089670Y-94803579D01*
X48108883Y-94817829D01*
X48126607Y-94833893D01*
X48142671Y-94851617D01*
X48156921Y-94870830D01*
X48169218Y-94891347D01*
X48179446Y-94912971D01*
X48187504Y-94935493D01*
X48193316Y-94958697D01*
X48196826Y-94982358D01*
X48198000Y-95006250D01*
X48198000Y-95493750D01*
X48196826Y-95517642D01*
X48193316Y-95541303D01*
X48187504Y-95564507D01*
X48179446Y-95587029D01*
X48169218Y-95608653D01*
X48156921Y-95629170D01*
X48142671Y-95648383D01*
X48126607Y-95666107D01*
X48108883Y-95682171D01*
X48089670Y-95696421D01*
X48069153Y-95708718D01*
X48047529Y-95718946D01*
X48025007Y-95727004D01*
X48001803Y-95732816D01*
X47978142Y-95736326D01*
X47954250Y-95737500D01*
X47041750Y-95737500D01*
X47017858Y-95736326D01*
X46994197Y-95732816D01*
X46970993Y-95727004D01*
X46948471Y-95718946D01*
X46926847Y-95708718D01*
X46906330Y-95696421D01*
X46887117Y-95682171D01*
X46869393Y-95666107D01*
X46853329Y-95648383D01*
X46839079Y-95629170D01*
X46826782Y-95608653D01*
X46816554Y-95587029D01*
X46808496Y-95564507D01*
X46802684Y-95541303D01*
X46799174Y-95517642D01*
X46798000Y-95493750D01*
X46798000Y-95006250D01*
X46799174Y-94982358D01*
X46802684Y-94958697D01*
X46808496Y-94935493D01*
X46816554Y-94912971D01*
X46826782Y-94891347D01*
X46839079Y-94870830D01*
X46853329Y-94851617D01*
X46869393Y-94833893D01*
X46887117Y-94817829D01*
X46906330Y-94803579D01*
X46926847Y-94791282D01*
X46948471Y-94781054D01*
X46970993Y-94772996D01*
X46994197Y-94767184D01*
X47017858Y-94763674D01*
X47041750Y-94762500D01*
X47954250Y-94762500D01*
X47978142Y-94763674D01*
X47978142Y-94763674D01*
G37*
D16*
X47498000Y-95250000D03*
D15*
G36*
X37564142Y-94939174D02*
G01*
X37587803Y-94942684D01*
X37611007Y-94948496D01*
X37633529Y-94956554D01*
X37655153Y-94966782D01*
X37675670Y-94979079D01*
X37694883Y-94993329D01*
X37712607Y-95009393D01*
X37728671Y-95027117D01*
X37742921Y-95046330D01*
X37755218Y-95066847D01*
X37765446Y-95088471D01*
X37773504Y-95110993D01*
X37779316Y-95134197D01*
X37782826Y-95157858D01*
X37784000Y-95181750D01*
X37784000Y-95669250D01*
X37782826Y-95693142D01*
X37779316Y-95716803D01*
X37773504Y-95740007D01*
X37765446Y-95762529D01*
X37755218Y-95784153D01*
X37742921Y-95804670D01*
X37728671Y-95823883D01*
X37712607Y-95841607D01*
X37694883Y-95857671D01*
X37675670Y-95871921D01*
X37655153Y-95884218D01*
X37633529Y-95894446D01*
X37611007Y-95902504D01*
X37587803Y-95908316D01*
X37564142Y-95911826D01*
X37540250Y-95913000D01*
X36627750Y-95913000D01*
X36603858Y-95911826D01*
X36580197Y-95908316D01*
X36556993Y-95902504D01*
X36534471Y-95894446D01*
X36512847Y-95884218D01*
X36492330Y-95871921D01*
X36473117Y-95857671D01*
X36455393Y-95841607D01*
X36439329Y-95823883D01*
X36425079Y-95804670D01*
X36412782Y-95784153D01*
X36402554Y-95762529D01*
X36394496Y-95740007D01*
X36388684Y-95716803D01*
X36385174Y-95693142D01*
X36384000Y-95669250D01*
X36384000Y-95181750D01*
X36385174Y-95157858D01*
X36388684Y-95134197D01*
X36394496Y-95110993D01*
X36402554Y-95088471D01*
X36412782Y-95066847D01*
X36425079Y-95046330D01*
X36439329Y-95027117D01*
X36455393Y-95009393D01*
X36473117Y-94993329D01*
X36492330Y-94979079D01*
X36512847Y-94966782D01*
X36534471Y-94956554D01*
X36556993Y-94948496D01*
X36580197Y-94942684D01*
X36603858Y-94939174D01*
X36627750Y-94938000D01*
X37540250Y-94938000D01*
X37564142Y-94939174D01*
X37564142Y-94939174D01*
G37*
D16*
X37084000Y-95425500D03*
D15*
G36*
X37564142Y-93064174D02*
G01*
X37587803Y-93067684D01*
X37611007Y-93073496D01*
X37633529Y-93081554D01*
X37655153Y-93091782D01*
X37675670Y-93104079D01*
X37694883Y-93118329D01*
X37712607Y-93134393D01*
X37728671Y-93152117D01*
X37742921Y-93171330D01*
X37755218Y-93191847D01*
X37765446Y-93213471D01*
X37773504Y-93235993D01*
X37779316Y-93259197D01*
X37782826Y-93282858D01*
X37784000Y-93306750D01*
X37784000Y-93794250D01*
X37782826Y-93818142D01*
X37779316Y-93841803D01*
X37773504Y-93865007D01*
X37765446Y-93887529D01*
X37755218Y-93909153D01*
X37742921Y-93929670D01*
X37728671Y-93948883D01*
X37712607Y-93966607D01*
X37694883Y-93982671D01*
X37675670Y-93996921D01*
X37655153Y-94009218D01*
X37633529Y-94019446D01*
X37611007Y-94027504D01*
X37587803Y-94033316D01*
X37564142Y-94036826D01*
X37540250Y-94038000D01*
X36627750Y-94038000D01*
X36603858Y-94036826D01*
X36580197Y-94033316D01*
X36556993Y-94027504D01*
X36534471Y-94019446D01*
X36512847Y-94009218D01*
X36492330Y-93996921D01*
X36473117Y-93982671D01*
X36455393Y-93966607D01*
X36439329Y-93948883D01*
X36425079Y-93929670D01*
X36412782Y-93909153D01*
X36402554Y-93887529D01*
X36394496Y-93865007D01*
X36388684Y-93841803D01*
X36385174Y-93818142D01*
X36384000Y-93794250D01*
X36384000Y-93306750D01*
X36385174Y-93282858D01*
X36388684Y-93259197D01*
X36394496Y-93235993D01*
X36402554Y-93213471D01*
X36412782Y-93191847D01*
X36425079Y-93171330D01*
X36439329Y-93152117D01*
X36455393Y-93134393D01*
X36473117Y-93118329D01*
X36492330Y-93104079D01*
X36512847Y-93091782D01*
X36534471Y-93081554D01*
X36556993Y-93073496D01*
X36580197Y-93067684D01*
X36603858Y-93064174D01*
X36627750Y-93063000D01*
X37540250Y-93063000D01*
X37564142Y-93064174D01*
X37564142Y-93064174D01*
G37*
D16*
X37084000Y-93550500D03*
D15*
G36*
X34135142Y-93191174D02*
G01*
X34158803Y-93194684D01*
X34182007Y-93200496D01*
X34204529Y-93208554D01*
X34226153Y-93218782D01*
X34246670Y-93231079D01*
X34265883Y-93245329D01*
X34283607Y-93261393D01*
X34299671Y-93279117D01*
X34313921Y-93298330D01*
X34326218Y-93318847D01*
X34336446Y-93340471D01*
X34344504Y-93362993D01*
X34350316Y-93386197D01*
X34353826Y-93409858D01*
X34355000Y-93433750D01*
X34355000Y-93921250D01*
X34353826Y-93945142D01*
X34350316Y-93968803D01*
X34344504Y-93992007D01*
X34336446Y-94014529D01*
X34326218Y-94036153D01*
X34313921Y-94056670D01*
X34299671Y-94075883D01*
X34283607Y-94093607D01*
X34265883Y-94109671D01*
X34246670Y-94123921D01*
X34226153Y-94136218D01*
X34204529Y-94146446D01*
X34182007Y-94154504D01*
X34158803Y-94160316D01*
X34135142Y-94163826D01*
X34111250Y-94165000D01*
X33198750Y-94165000D01*
X33174858Y-94163826D01*
X33151197Y-94160316D01*
X33127993Y-94154504D01*
X33105471Y-94146446D01*
X33083847Y-94136218D01*
X33063330Y-94123921D01*
X33044117Y-94109671D01*
X33026393Y-94093607D01*
X33010329Y-94075883D01*
X32996079Y-94056670D01*
X32983782Y-94036153D01*
X32973554Y-94014529D01*
X32965496Y-93992007D01*
X32959684Y-93968803D01*
X32956174Y-93945142D01*
X32955000Y-93921250D01*
X32955000Y-93433750D01*
X32956174Y-93409858D01*
X32959684Y-93386197D01*
X32965496Y-93362993D01*
X32973554Y-93340471D01*
X32983782Y-93318847D01*
X32996079Y-93298330D01*
X33010329Y-93279117D01*
X33026393Y-93261393D01*
X33044117Y-93245329D01*
X33063330Y-93231079D01*
X33083847Y-93218782D01*
X33105471Y-93208554D01*
X33127993Y-93200496D01*
X33151197Y-93194684D01*
X33174858Y-93191174D01*
X33198750Y-93190000D01*
X34111250Y-93190000D01*
X34135142Y-93191174D01*
X34135142Y-93191174D01*
G37*
D16*
X33655000Y-93677500D03*
D15*
G36*
X34135142Y-95066174D02*
G01*
X34158803Y-95069684D01*
X34182007Y-95075496D01*
X34204529Y-95083554D01*
X34226153Y-95093782D01*
X34246670Y-95106079D01*
X34265883Y-95120329D01*
X34283607Y-95136393D01*
X34299671Y-95154117D01*
X34313921Y-95173330D01*
X34326218Y-95193847D01*
X34336446Y-95215471D01*
X34344504Y-95237993D01*
X34350316Y-95261197D01*
X34353826Y-95284858D01*
X34355000Y-95308750D01*
X34355000Y-95796250D01*
X34353826Y-95820142D01*
X34350316Y-95843803D01*
X34344504Y-95867007D01*
X34336446Y-95889529D01*
X34326218Y-95911153D01*
X34313921Y-95931670D01*
X34299671Y-95950883D01*
X34283607Y-95968607D01*
X34265883Y-95984671D01*
X34246670Y-95998921D01*
X34226153Y-96011218D01*
X34204529Y-96021446D01*
X34182007Y-96029504D01*
X34158803Y-96035316D01*
X34135142Y-96038826D01*
X34111250Y-96040000D01*
X33198750Y-96040000D01*
X33174858Y-96038826D01*
X33151197Y-96035316D01*
X33127993Y-96029504D01*
X33105471Y-96021446D01*
X33083847Y-96011218D01*
X33063330Y-95998921D01*
X33044117Y-95984671D01*
X33026393Y-95968607D01*
X33010329Y-95950883D01*
X32996079Y-95931670D01*
X32983782Y-95911153D01*
X32973554Y-95889529D01*
X32965496Y-95867007D01*
X32959684Y-95843803D01*
X32956174Y-95820142D01*
X32955000Y-95796250D01*
X32955000Y-95308750D01*
X32956174Y-95284858D01*
X32959684Y-95261197D01*
X32965496Y-95237993D01*
X32973554Y-95215471D01*
X32983782Y-95193847D01*
X32996079Y-95173330D01*
X33010329Y-95154117D01*
X33026393Y-95136393D01*
X33044117Y-95120329D01*
X33063330Y-95106079D01*
X33083847Y-95093782D01*
X33105471Y-95083554D01*
X33127993Y-95075496D01*
X33151197Y-95069684D01*
X33174858Y-95066174D01*
X33198750Y-95065000D01*
X34111250Y-95065000D01*
X34135142Y-95066174D01*
X34135142Y-95066174D01*
G37*
D16*
X33655000Y-95552500D03*
D15*
G36*
X29478504Y-98557204D02*
G01*
X29502773Y-98560804D01*
X29526571Y-98566765D01*
X29549671Y-98575030D01*
X29571849Y-98585520D01*
X29592893Y-98598133D01*
X29612598Y-98612747D01*
X29630777Y-98629223D01*
X29647253Y-98647402D01*
X29661867Y-98667107D01*
X29674480Y-98688151D01*
X29684970Y-98710329D01*
X29693235Y-98733429D01*
X29699196Y-98757227D01*
X29702796Y-98781496D01*
X29704000Y-98806000D01*
X29704000Y-99556000D01*
X29702796Y-99580504D01*
X29699196Y-99604773D01*
X29693235Y-99628571D01*
X29684970Y-99651671D01*
X29674480Y-99673849D01*
X29661867Y-99694893D01*
X29647253Y-99714598D01*
X29630777Y-99732777D01*
X29612598Y-99749253D01*
X29592893Y-99763867D01*
X29571849Y-99776480D01*
X29549671Y-99786970D01*
X29526571Y-99795235D01*
X29502773Y-99801196D01*
X29478504Y-99804796D01*
X29454000Y-99806000D01*
X28204000Y-99806000D01*
X28179496Y-99804796D01*
X28155227Y-99801196D01*
X28131429Y-99795235D01*
X28108329Y-99786970D01*
X28086151Y-99776480D01*
X28065107Y-99763867D01*
X28045402Y-99749253D01*
X28027223Y-99732777D01*
X28010747Y-99714598D01*
X27996133Y-99694893D01*
X27983520Y-99673849D01*
X27973030Y-99651671D01*
X27964765Y-99628571D01*
X27958804Y-99604773D01*
X27955204Y-99580504D01*
X27954000Y-99556000D01*
X27954000Y-98806000D01*
X27955204Y-98781496D01*
X27958804Y-98757227D01*
X27964765Y-98733429D01*
X27973030Y-98710329D01*
X27983520Y-98688151D01*
X27996133Y-98667107D01*
X28010747Y-98647402D01*
X28027223Y-98629223D01*
X28045402Y-98612747D01*
X28065107Y-98598133D01*
X28086151Y-98585520D01*
X28108329Y-98575030D01*
X28131429Y-98566765D01*
X28155227Y-98560804D01*
X28179496Y-98557204D01*
X28204000Y-98556000D01*
X29454000Y-98556000D01*
X29478504Y-98557204D01*
X29478504Y-98557204D01*
G37*
D17*
X28829000Y-99181000D03*
D15*
G36*
X29478504Y-101357204D02*
G01*
X29502773Y-101360804D01*
X29526571Y-101366765D01*
X29549671Y-101375030D01*
X29571849Y-101385520D01*
X29592893Y-101398133D01*
X29612598Y-101412747D01*
X29630777Y-101429223D01*
X29647253Y-101447402D01*
X29661867Y-101467107D01*
X29674480Y-101488151D01*
X29684970Y-101510329D01*
X29693235Y-101533429D01*
X29699196Y-101557227D01*
X29702796Y-101581496D01*
X29704000Y-101606000D01*
X29704000Y-102356000D01*
X29702796Y-102380504D01*
X29699196Y-102404773D01*
X29693235Y-102428571D01*
X29684970Y-102451671D01*
X29674480Y-102473849D01*
X29661867Y-102494893D01*
X29647253Y-102514598D01*
X29630777Y-102532777D01*
X29612598Y-102549253D01*
X29592893Y-102563867D01*
X29571849Y-102576480D01*
X29549671Y-102586970D01*
X29526571Y-102595235D01*
X29502773Y-102601196D01*
X29478504Y-102604796D01*
X29454000Y-102606000D01*
X28204000Y-102606000D01*
X28179496Y-102604796D01*
X28155227Y-102601196D01*
X28131429Y-102595235D01*
X28108329Y-102586970D01*
X28086151Y-102576480D01*
X28065107Y-102563867D01*
X28045402Y-102549253D01*
X28027223Y-102532777D01*
X28010747Y-102514598D01*
X27996133Y-102494893D01*
X27983520Y-102473849D01*
X27973030Y-102451671D01*
X27964765Y-102428571D01*
X27958804Y-102404773D01*
X27955204Y-102380504D01*
X27954000Y-102356000D01*
X27954000Y-101606000D01*
X27955204Y-101581496D01*
X27958804Y-101557227D01*
X27964765Y-101533429D01*
X27973030Y-101510329D01*
X27983520Y-101488151D01*
X27996133Y-101467107D01*
X28010747Y-101447402D01*
X28027223Y-101429223D01*
X28045402Y-101412747D01*
X28065107Y-101398133D01*
X28086151Y-101385520D01*
X28108329Y-101375030D01*
X28131429Y-101366765D01*
X28155227Y-101360804D01*
X28179496Y-101357204D01*
X28204000Y-101356000D01*
X29454000Y-101356000D01*
X29478504Y-101357204D01*
X29478504Y-101357204D01*
G37*
D17*
X28829000Y-101981000D03*
D18*
X98425000Y-110268750D03*
X98425000Y-113568750D03*
X98425000Y-91156250D03*
X98425000Y-94456250D03*
X79375000Y-110268750D03*
X79375000Y-113568750D03*
X79375000Y-91281250D03*
X79375000Y-94581250D03*
D15*
G36*
X37366642Y-109632424D02*
G01*
X37390303Y-109635934D01*
X37413507Y-109641746D01*
X37436029Y-109649804D01*
X37457653Y-109660032D01*
X37478170Y-109672329D01*
X37497383Y-109686579D01*
X37515107Y-109702643D01*
X37531171Y-109720367D01*
X37545421Y-109739580D01*
X37557718Y-109760097D01*
X37567946Y-109781721D01*
X37576004Y-109804243D01*
X37581816Y-109827447D01*
X37585326Y-109851108D01*
X37586500Y-109875000D01*
X37586500Y-110787500D01*
X37585326Y-110811392D01*
X37581816Y-110835053D01*
X37576004Y-110858257D01*
X37567946Y-110880779D01*
X37557718Y-110902403D01*
X37545421Y-110922920D01*
X37531171Y-110942133D01*
X37515107Y-110959857D01*
X37497383Y-110975921D01*
X37478170Y-110990171D01*
X37457653Y-111002468D01*
X37436029Y-111012696D01*
X37413507Y-111020754D01*
X37390303Y-111026566D01*
X37366642Y-111030076D01*
X37342750Y-111031250D01*
X36855250Y-111031250D01*
X36831358Y-111030076D01*
X36807697Y-111026566D01*
X36784493Y-111020754D01*
X36761971Y-111012696D01*
X36740347Y-111002468D01*
X36719830Y-110990171D01*
X36700617Y-110975921D01*
X36682893Y-110959857D01*
X36666829Y-110942133D01*
X36652579Y-110922920D01*
X36640282Y-110902403D01*
X36630054Y-110880779D01*
X36621996Y-110858257D01*
X36616184Y-110835053D01*
X36612674Y-110811392D01*
X36611500Y-110787500D01*
X36611500Y-109875000D01*
X36612674Y-109851108D01*
X36616184Y-109827447D01*
X36621996Y-109804243D01*
X36630054Y-109781721D01*
X36640282Y-109760097D01*
X36652579Y-109739580D01*
X36666829Y-109720367D01*
X36682893Y-109702643D01*
X36700617Y-109686579D01*
X36719830Y-109672329D01*
X36740347Y-109660032D01*
X36761971Y-109649804D01*
X36784493Y-109641746D01*
X36807697Y-109635934D01*
X36831358Y-109632424D01*
X36855250Y-109631250D01*
X37342750Y-109631250D01*
X37366642Y-109632424D01*
X37366642Y-109632424D01*
G37*
D16*
X37099000Y-110331250D03*
D15*
G36*
X39241642Y-109632424D02*
G01*
X39265303Y-109635934D01*
X39288507Y-109641746D01*
X39311029Y-109649804D01*
X39332653Y-109660032D01*
X39353170Y-109672329D01*
X39372383Y-109686579D01*
X39390107Y-109702643D01*
X39406171Y-109720367D01*
X39420421Y-109739580D01*
X39432718Y-109760097D01*
X39442946Y-109781721D01*
X39451004Y-109804243D01*
X39456816Y-109827447D01*
X39460326Y-109851108D01*
X39461500Y-109875000D01*
X39461500Y-110787500D01*
X39460326Y-110811392D01*
X39456816Y-110835053D01*
X39451004Y-110858257D01*
X39442946Y-110880779D01*
X39432718Y-110902403D01*
X39420421Y-110922920D01*
X39406171Y-110942133D01*
X39390107Y-110959857D01*
X39372383Y-110975921D01*
X39353170Y-110990171D01*
X39332653Y-111002468D01*
X39311029Y-111012696D01*
X39288507Y-111020754D01*
X39265303Y-111026566D01*
X39241642Y-111030076D01*
X39217750Y-111031250D01*
X38730250Y-111031250D01*
X38706358Y-111030076D01*
X38682697Y-111026566D01*
X38659493Y-111020754D01*
X38636971Y-111012696D01*
X38615347Y-111002468D01*
X38594830Y-110990171D01*
X38575617Y-110975921D01*
X38557893Y-110959857D01*
X38541829Y-110942133D01*
X38527579Y-110922920D01*
X38515282Y-110902403D01*
X38505054Y-110880779D01*
X38496996Y-110858257D01*
X38491184Y-110835053D01*
X38487674Y-110811392D01*
X38486500Y-110787500D01*
X38486500Y-109875000D01*
X38487674Y-109851108D01*
X38491184Y-109827447D01*
X38496996Y-109804243D01*
X38505054Y-109781721D01*
X38515282Y-109760097D01*
X38527579Y-109739580D01*
X38541829Y-109720367D01*
X38557893Y-109702643D01*
X38575617Y-109686579D01*
X38594830Y-109672329D01*
X38615347Y-109660032D01*
X38636971Y-109649804D01*
X38659493Y-109641746D01*
X38682697Y-109635934D01*
X38706358Y-109632424D01*
X38730250Y-109631250D01*
X39217750Y-109631250D01*
X39241642Y-109632424D01*
X39241642Y-109632424D01*
G37*
D16*
X38974000Y-110331250D03*
D15*
G36*
X40104142Y-100969924D02*
G01*
X40127803Y-100973434D01*
X40151007Y-100979246D01*
X40173529Y-100987304D01*
X40195153Y-100997532D01*
X40215670Y-101009829D01*
X40234883Y-101024079D01*
X40252607Y-101040143D01*
X40268671Y-101057867D01*
X40282921Y-101077080D01*
X40295218Y-101097597D01*
X40305446Y-101119221D01*
X40313504Y-101141743D01*
X40319316Y-101164947D01*
X40322826Y-101188608D01*
X40324000Y-101212500D01*
X40324000Y-101700000D01*
X40322826Y-101723892D01*
X40319316Y-101747553D01*
X40313504Y-101770757D01*
X40305446Y-101793279D01*
X40295218Y-101814903D01*
X40282921Y-101835420D01*
X40268671Y-101854633D01*
X40252607Y-101872357D01*
X40234883Y-101888421D01*
X40215670Y-101902671D01*
X40195153Y-101914968D01*
X40173529Y-101925196D01*
X40151007Y-101933254D01*
X40127803Y-101939066D01*
X40104142Y-101942576D01*
X40080250Y-101943750D01*
X39167750Y-101943750D01*
X39143858Y-101942576D01*
X39120197Y-101939066D01*
X39096993Y-101933254D01*
X39074471Y-101925196D01*
X39052847Y-101914968D01*
X39032330Y-101902671D01*
X39013117Y-101888421D01*
X38995393Y-101872357D01*
X38979329Y-101854633D01*
X38965079Y-101835420D01*
X38952782Y-101814903D01*
X38942554Y-101793279D01*
X38934496Y-101770757D01*
X38928684Y-101747553D01*
X38925174Y-101723892D01*
X38924000Y-101700000D01*
X38924000Y-101212500D01*
X38925174Y-101188608D01*
X38928684Y-101164947D01*
X38934496Y-101141743D01*
X38942554Y-101119221D01*
X38952782Y-101097597D01*
X38965079Y-101077080D01*
X38979329Y-101057867D01*
X38995393Y-101040143D01*
X39013117Y-101024079D01*
X39032330Y-101009829D01*
X39052847Y-100997532D01*
X39074471Y-100987304D01*
X39096993Y-100979246D01*
X39120197Y-100973434D01*
X39143858Y-100969924D01*
X39167750Y-100968750D01*
X40080250Y-100968750D01*
X40104142Y-100969924D01*
X40104142Y-100969924D01*
G37*
D16*
X39624000Y-101456250D03*
D15*
G36*
X40104142Y-102844924D02*
G01*
X40127803Y-102848434D01*
X40151007Y-102854246D01*
X40173529Y-102862304D01*
X40195153Y-102872532D01*
X40215670Y-102884829D01*
X40234883Y-102899079D01*
X40252607Y-102915143D01*
X40268671Y-102932867D01*
X40282921Y-102952080D01*
X40295218Y-102972597D01*
X40305446Y-102994221D01*
X40313504Y-103016743D01*
X40319316Y-103039947D01*
X40322826Y-103063608D01*
X40324000Y-103087500D01*
X40324000Y-103575000D01*
X40322826Y-103598892D01*
X40319316Y-103622553D01*
X40313504Y-103645757D01*
X40305446Y-103668279D01*
X40295218Y-103689903D01*
X40282921Y-103710420D01*
X40268671Y-103729633D01*
X40252607Y-103747357D01*
X40234883Y-103763421D01*
X40215670Y-103777671D01*
X40195153Y-103789968D01*
X40173529Y-103800196D01*
X40151007Y-103808254D01*
X40127803Y-103814066D01*
X40104142Y-103817576D01*
X40080250Y-103818750D01*
X39167750Y-103818750D01*
X39143858Y-103817576D01*
X39120197Y-103814066D01*
X39096993Y-103808254D01*
X39074471Y-103800196D01*
X39052847Y-103789968D01*
X39032330Y-103777671D01*
X39013117Y-103763421D01*
X38995393Y-103747357D01*
X38979329Y-103729633D01*
X38965079Y-103710420D01*
X38952782Y-103689903D01*
X38942554Y-103668279D01*
X38934496Y-103645757D01*
X38928684Y-103622553D01*
X38925174Y-103598892D01*
X38924000Y-103575000D01*
X38924000Y-103087500D01*
X38925174Y-103063608D01*
X38928684Y-103039947D01*
X38934496Y-103016743D01*
X38942554Y-102994221D01*
X38952782Y-102972597D01*
X38965079Y-102952080D01*
X38979329Y-102932867D01*
X38995393Y-102915143D01*
X39013117Y-102899079D01*
X39032330Y-102884829D01*
X39052847Y-102872532D01*
X39074471Y-102862304D01*
X39096993Y-102854246D01*
X39120197Y-102848434D01*
X39143858Y-102844924D01*
X39167750Y-102843750D01*
X40080250Y-102843750D01*
X40104142Y-102844924D01*
X40104142Y-102844924D01*
G37*
D16*
X39624000Y-103331250D03*
D15*
G36*
X43406142Y-94987674D02*
G01*
X43429803Y-94991184D01*
X43453007Y-94996996D01*
X43475529Y-95005054D01*
X43497153Y-95015282D01*
X43517670Y-95027579D01*
X43536883Y-95041829D01*
X43554607Y-95057893D01*
X43570671Y-95075617D01*
X43584921Y-95094830D01*
X43597218Y-95115347D01*
X43607446Y-95136971D01*
X43615504Y-95159493D01*
X43621316Y-95182697D01*
X43624826Y-95206358D01*
X43626000Y-95230250D01*
X43626000Y-95717750D01*
X43624826Y-95741642D01*
X43621316Y-95765303D01*
X43615504Y-95788507D01*
X43607446Y-95811029D01*
X43597218Y-95832653D01*
X43584921Y-95853170D01*
X43570671Y-95872383D01*
X43554607Y-95890107D01*
X43536883Y-95906171D01*
X43517670Y-95920421D01*
X43497153Y-95932718D01*
X43475529Y-95942946D01*
X43453007Y-95951004D01*
X43429803Y-95956816D01*
X43406142Y-95960326D01*
X43382250Y-95961500D01*
X42469750Y-95961500D01*
X42445858Y-95960326D01*
X42422197Y-95956816D01*
X42398993Y-95951004D01*
X42376471Y-95942946D01*
X42354847Y-95932718D01*
X42334330Y-95920421D01*
X42315117Y-95906171D01*
X42297393Y-95890107D01*
X42281329Y-95872383D01*
X42267079Y-95853170D01*
X42254782Y-95832653D01*
X42244554Y-95811029D01*
X42236496Y-95788507D01*
X42230684Y-95765303D01*
X42227174Y-95741642D01*
X42226000Y-95717750D01*
X42226000Y-95230250D01*
X42227174Y-95206358D01*
X42230684Y-95182697D01*
X42236496Y-95159493D01*
X42244554Y-95136971D01*
X42254782Y-95115347D01*
X42267079Y-95094830D01*
X42281329Y-95075617D01*
X42297393Y-95057893D01*
X42315117Y-95041829D01*
X42334330Y-95027579D01*
X42354847Y-95015282D01*
X42376471Y-95005054D01*
X42398993Y-94996996D01*
X42422197Y-94991184D01*
X42445858Y-94987674D01*
X42469750Y-94986500D01*
X43382250Y-94986500D01*
X43406142Y-94987674D01*
X43406142Y-94987674D01*
G37*
D16*
X42926000Y-95474000D03*
D15*
G36*
X43406142Y-93112674D02*
G01*
X43429803Y-93116184D01*
X43453007Y-93121996D01*
X43475529Y-93130054D01*
X43497153Y-93140282D01*
X43517670Y-93152579D01*
X43536883Y-93166829D01*
X43554607Y-93182893D01*
X43570671Y-93200617D01*
X43584921Y-93219830D01*
X43597218Y-93240347D01*
X43607446Y-93261971D01*
X43615504Y-93284493D01*
X43621316Y-93307697D01*
X43624826Y-93331358D01*
X43626000Y-93355250D01*
X43626000Y-93842750D01*
X43624826Y-93866642D01*
X43621316Y-93890303D01*
X43615504Y-93913507D01*
X43607446Y-93936029D01*
X43597218Y-93957653D01*
X43584921Y-93978170D01*
X43570671Y-93997383D01*
X43554607Y-94015107D01*
X43536883Y-94031171D01*
X43517670Y-94045421D01*
X43497153Y-94057718D01*
X43475529Y-94067946D01*
X43453007Y-94076004D01*
X43429803Y-94081816D01*
X43406142Y-94085326D01*
X43382250Y-94086500D01*
X42469750Y-94086500D01*
X42445858Y-94085326D01*
X42422197Y-94081816D01*
X42398993Y-94076004D01*
X42376471Y-94067946D01*
X42354847Y-94057718D01*
X42334330Y-94045421D01*
X42315117Y-94031171D01*
X42297393Y-94015107D01*
X42281329Y-93997383D01*
X42267079Y-93978170D01*
X42254782Y-93957653D01*
X42244554Y-93936029D01*
X42236496Y-93913507D01*
X42230684Y-93890303D01*
X42227174Y-93866642D01*
X42226000Y-93842750D01*
X42226000Y-93355250D01*
X42227174Y-93331358D01*
X42230684Y-93307697D01*
X42236496Y-93284493D01*
X42244554Y-93261971D01*
X42254782Y-93240347D01*
X42267079Y-93219830D01*
X42281329Y-93200617D01*
X42297393Y-93182893D01*
X42315117Y-93166829D01*
X42334330Y-93152579D01*
X42354847Y-93140282D01*
X42376471Y-93130054D01*
X42398993Y-93121996D01*
X42422197Y-93116184D01*
X42445858Y-93112674D01*
X42469750Y-93111500D01*
X43382250Y-93111500D01*
X43406142Y-93112674D01*
X43406142Y-93112674D01*
G37*
D16*
X42926000Y-93599000D03*
D15*
G36*
X36135392Y-100969924D02*
G01*
X36159053Y-100973434D01*
X36182257Y-100979246D01*
X36204779Y-100987304D01*
X36226403Y-100997532D01*
X36246920Y-101009829D01*
X36266133Y-101024079D01*
X36283857Y-101040143D01*
X36299921Y-101057867D01*
X36314171Y-101077080D01*
X36326468Y-101097597D01*
X36336696Y-101119221D01*
X36344754Y-101141743D01*
X36350566Y-101164947D01*
X36354076Y-101188608D01*
X36355250Y-101212500D01*
X36355250Y-101700000D01*
X36354076Y-101723892D01*
X36350566Y-101747553D01*
X36344754Y-101770757D01*
X36336696Y-101793279D01*
X36326468Y-101814903D01*
X36314171Y-101835420D01*
X36299921Y-101854633D01*
X36283857Y-101872357D01*
X36266133Y-101888421D01*
X36246920Y-101902671D01*
X36226403Y-101914968D01*
X36204779Y-101925196D01*
X36182257Y-101933254D01*
X36159053Y-101939066D01*
X36135392Y-101942576D01*
X36111500Y-101943750D01*
X35199000Y-101943750D01*
X35175108Y-101942576D01*
X35151447Y-101939066D01*
X35128243Y-101933254D01*
X35105721Y-101925196D01*
X35084097Y-101914968D01*
X35063580Y-101902671D01*
X35044367Y-101888421D01*
X35026643Y-101872357D01*
X35010579Y-101854633D01*
X34996329Y-101835420D01*
X34984032Y-101814903D01*
X34973804Y-101793279D01*
X34965746Y-101770757D01*
X34959934Y-101747553D01*
X34956424Y-101723892D01*
X34955250Y-101700000D01*
X34955250Y-101212500D01*
X34956424Y-101188608D01*
X34959934Y-101164947D01*
X34965746Y-101141743D01*
X34973804Y-101119221D01*
X34984032Y-101097597D01*
X34996329Y-101077080D01*
X35010579Y-101057867D01*
X35026643Y-101040143D01*
X35044367Y-101024079D01*
X35063580Y-101009829D01*
X35084097Y-100997532D01*
X35105721Y-100987304D01*
X35128243Y-100979246D01*
X35151447Y-100973434D01*
X35175108Y-100969924D01*
X35199000Y-100968750D01*
X36111500Y-100968750D01*
X36135392Y-100969924D01*
X36135392Y-100969924D01*
G37*
D16*
X35655250Y-101456250D03*
D15*
G36*
X36135392Y-102844924D02*
G01*
X36159053Y-102848434D01*
X36182257Y-102854246D01*
X36204779Y-102862304D01*
X36226403Y-102872532D01*
X36246920Y-102884829D01*
X36266133Y-102899079D01*
X36283857Y-102915143D01*
X36299921Y-102932867D01*
X36314171Y-102952080D01*
X36326468Y-102972597D01*
X36336696Y-102994221D01*
X36344754Y-103016743D01*
X36350566Y-103039947D01*
X36354076Y-103063608D01*
X36355250Y-103087500D01*
X36355250Y-103575000D01*
X36354076Y-103598892D01*
X36350566Y-103622553D01*
X36344754Y-103645757D01*
X36336696Y-103668279D01*
X36326468Y-103689903D01*
X36314171Y-103710420D01*
X36299921Y-103729633D01*
X36283857Y-103747357D01*
X36266133Y-103763421D01*
X36246920Y-103777671D01*
X36226403Y-103789968D01*
X36204779Y-103800196D01*
X36182257Y-103808254D01*
X36159053Y-103814066D01*
X36135392Y-103817576D01*
X36111500Y-103818750D01*
X35199000Y-103818750D01*
X35175108Y-103817576D01*
X35151447Y-103814066D01*
X35128243Y-103808254D01*
X35105721Y-103800196D01*
X35084097Y-103789968D01*
X35063580Y-103777671D01*
X35044367Y-103763421D01*
X35026643Y-103747357D01*
X35010579Y-103729633D01*
X34996329Y-103710420D01*
X34984032Y-103689903D01*
X34973804Y-103668279D01*
X34965746Y-103645757D01*
X34959934Y-103622553D01*
X34956424Y-103598892D01*
X34955250Y-103575000D01*
X34955250Y-103087500D01*
X34956424Y-103063608D01*
X34959934Y-103039947D01*
X34965746Y-103016743D01*
X34973804Y-102994221D01*
X34984032Y-102972597D01*
X34996329Y-102952080D01*
X35010579Y-102932867D01*
X35026643Y-102915143D01*
X35044367Y-102899079D01*
X35063580Y-102884829D01*
X35084097Y-102872532D01*
X35105721Y-102862304D01*
X35128243Y-102854246D01*
X35151447Y-102848434D01*
X35175108Y-102844924D01*
X35199000Y-102843750D01*
X36111500Y-102843750D01*
X36135392Y-102844924D01*
X36135392Y-102844924D01*
G37*
D16*
X35655250Y-103331250D03*
D15*
G36*
X47946392Y-99574674D02*
G01*
X47970053Y-99578184D01*
X47993257Y-99583996D01*
X48015779Y-99592054D01*
X48037403Y-99602282D01*
X48057920Y-99614579D01*
X48077133Y-99628829D01*
X48094857Y-99644893D01*
X48110921Y-99662617D01*
X48125171Y-99681830D01*
X48137468Y-99702347D01*
X48147696Y-99723971D01*
X48155754Y-99746493D01*
X48161566Y-99769697D01*
X48165076Y-99793358D01*
X48166250Y-99817250D01*
X48166250Y-100304750D01*
X48165076Y-100328642D01*
X48161566Y-100352303D01*
X48155754Y-100375507D01*
X48147696Y-100398029D01*
X48137468Y-100419653D01*
X48125171Y-100440170D01*
X48110921Y-100459383D01*
X48094857Y-100477107D01*
X48077133Y-100493171D01*
X48057920Y-100507421D01*
X48037403Y-100519718D01*
X48015779Y-100529946D01*
X47993257Y-100538004D01*
X47970053Y-100543816D01*
X47946392Y-100547326D01*
X47922500Y-100548500D01*
X47010000Y-100548500D01*
X46986108Y-100547326D01*
X46962447Y-100543816D01*
X46939243Y-100538004D01*
X46916721Y-100529946D01*
X46895097Y-100519718D01*
X46874580Y-100507421D01*
X46855367Y-100493171D01*
X46837643Y-100477107D01*
X46821579Y-100459383D01*
X46807329Y-100440170D01*
X46795032Y-100419653D01*
X46784804Y-100398029D01*
X46776746Y-100375507D01*
X46770934Y-100352303D01*
X46767424Y-100328642D01*
X46766250Y-100304750D01*
X46766250Y-99817250D01*
X46767424Y-99793358D01*
X46770934Y-99769697D01*
X46776746Y-99746493D01*
X46784804Y-99723971D01*
X46795032Y-99702347D01*
X46807329Y-99681830D01*
X46821579Y-99662617D01*
X46837643Y-99644893D01*
X46855367Y-99628829D01*
X46874580Y-99614579D01*
X46895097Y-99602282D01*
X46916721Y-99592054D01*
X46939243Y-99583996D01*
X46962447Y-99578184D01*
X46986108Y-99574674D01*
X47010000Y-99573500D01*
X47922500Y-99573500D01*
X47946392Y-99574674D01*
X47946392Y-99574674D01*
G37*
D16*
X47466250Y-100061000D03*
D15*
G36*
X47946392Y-97699674D02*
G01*
X47970053Y-97703184D01*
X47993257Y-97708996D01*
X48015779Y-97717054D01*
X48037403Y-97727282D01*
X48057920Y-97739579D01*
X48077133Y-97753829D01*
X48094857Y-97769893D01*
X48110921Y-97787617D01*
X48125171Y-97806830D01*
X48137468Y-97827347D01*
X48147696Y-97848971D01*
X48155754Y-97871493D01*
X48161566Y-97894697D01*
X48165076Y-97918358D01*
X48166250Y-97942250D01*
X48166250Y-98429750D01*
X48165076Y-98453642D01*
X48161566Y-98477303D01*
X48155754Y-98500507D01*
X48147696Y-98523029D01*
X48137468Y-98544653D01*
X48125171Y-98565170D01*
X48110921Y-98584383D01*
X48094857Y-98602107D01*
X48077133Y-98618171D01*
X48057920Y-98632421D01*
X48037403Y-98644718D01*
X48015779Y-98654946D01*
X47993257Y-98663004D01*
X47970053Y-98668816D01*
X47946392Y-98672326D01*
X47922500Y-98673500D01*
X47010000Y-98673500D01*
X46986108Y-98672326D01*
X46962447Y-98668816D01*
X46939243Y-98663004D01*
X46916721Y-98654946D01*
X46895097Y-98644718D01*
X46874580Y-98632421D01*
X46855367Y-98618171D01*
X46837643Y-98602107D01*
X46821579Y-98584383D01*
X46807329Y-98565170D01*
X46795032Y-98544653D01*
X46784804Y-98523029D01*
X46776746Y-98500507D01*
X46770934Y-98477303D01*
X46767424Y-98453642D01*
X46766250Y-98429750D01*
X46766250Y-97942250D01*
X46767424Y-97918358D01*
X46770934Y-97894697D01*
X46776746Y-97871493D01*
X46784804Y-97848971D01*
X46795032Y-97827347D01*
X46807329Y-97806830D01*
X46821579Y-97787617D01*
X46837643Y-97769893D01*
X46855367Y-97753829D01*
X46874580Y-97739579D01*
X46895097Y-97727282D01*
X46916721Y-97717054D01*
X46939243Y-97708996D01*
X46962447Y-97703184D01*
X46986108Y-97699674D01*
X47010000Y-97698500D01*
X47922500Y-97698500D01*
X47946392Y-97699674D01*
X47946392Y-97699674D01*
G37*
D16*
X47466250Y-98186000D03*
D15*
G36*
X54296392Y-97699674D02*
G01*
X54320053Y-97703184D01*
X54343257Y-97708996D01*
X54365779Y-97717054D01*
X54387403Y-97727282D01*
X54407920Y-97739579D01*
X54427133Y-97753829D01*
X54444857Y-97769893D01*
X54460921Y-97787617D01*
X54475171Y-97806830D01*
X54487468Y-97827347D01*
X54497696Y-97848971D01*
X54505754Y-97871493D01*
X54511566Y-97894697D01*
X54515076Y-97918358D01*
X54516250Y-97942250D01*
X54516250Y-98429750D01*
X54515076Y-98453642D01*
X54511566Y-98477303D01*
X54505754Y-98500507D01*
X54497696Y-98523029D01*
X54487468Y-98544653D01*
X54475171Y-98565170D01*
X54460921Y-98584383D01*
X54444857Y-98602107D01*
X54427133Y-98618171D01*
X54407920Y-98632421D01*
X54387403Y-98644718D01*
X54365779Y-98654946D01*
X54343257Y-98663004D01*
X54320053Y-98668816D01*
X54296392Y-98672326D01*
X54272500Y-98673500D01*
X53360000Y-98673500D01*
X53336108Y-98672326D01*
X53312447Y-98668816D01*
X53289243Y-98663004D01*
X53266721Y-98654946D01*
X53245097Y-98644718D01*
X53224580Y-98632421D01*
X53205367Y-98618171D01*
X53187643Y-98602107D01*
X53171579Y-98584383D01*
X53157329Y-98565170D01*
X53145032Y-98544653D01*
X53134804Y-98523029D01*
X53126746Y-98500507D01*
X53120934Y-98477303D01*
X53117424Y-98453642D01*
X53116250Y-98429750D01*
X53116250Y-97942250D01*
X53117424Y-97918358D01*
X53120934Y-97894697D01*
X53126746Y-97871493D01*
X53134804Y-97848971D01*
X53145032Y-97827347D01*
X53157329Y-97806830D01*
X53171579Y-97787617D01*
X53187643Y-97769893D01*
X53205367Y-97753829D01*
X53224580Y-97739579D01*
X53245097Y-97727282D01*
X53266721Y-97717054D01*
X53289243Y-97708996D01*
X53312447Y-97703184D01*
X53336108Y-97699674D01*
X53360000Y-97698500D01*
X54272500Y-97698500D01*
X54296392Y-97699674D01*
X54296392Y-97699674D01*
G37*
D16*
X53816250Y-98186000D03*
D15*
G36*
X54296392Y-99574674D02*
G01*
X54320053Y-99578184D01*
X54343257Y-99583996D01*
X54365779Y-99592054D01*
X54387403Y-99602282D01*
X54407920Y-99614579D01*
X54427133Y-99628829D01*
X54444857Y-99644893D01*
X54460921Y-99662617D01*
X54475171Y-99681830D01*
X54487468Y-99702347D01*
X54497696Y-99723971D01*
X54505754Y-99746493D01*
X54511566Y-99769697D01*
X54515076Y-99793358D01*
X54516250Y-99817250D01*
X54516250Y-100304750D01*
X54515076Y-100328642D01*
X54511566Y-100352303D01*
X54505754Y-100375507D01*
X54497696Y-100398029D01*
X54487468Y-100419653D01*
X54475171Y-100440170D01*
X54460921Y-100459383D01*
X54444857Y-100477107D01*
X54427133Y-100493171D01*
X54407920Y-100507421D01*
X54387403Y-100519718D01*
X54365779Y-100529946D01*
X54343257Y-100538004D01*
X54320053Y-100543816D01*
X54296392Y-100547326D01*
X54272500Y-100548500D01*
X53360000Y-100548500D01*
X53336108Y-100547326D01*
X53312447Y-100543816D01*
X53289243Y-100538004D01*
X53266721Y-100529946D01*
X53245097Y-100519718D01*
X53224580Y-100507421D01*
X53205367Y-100493171D01*
X53187643Y-100477107D01*
X53171579Y-100459383D01*
X53157329Y-100440170D01*
X53145032Y-100419653D01*
X53134804Y-100398029D01*
X53126746Y-100375507D01*
X53120934Y-100352303D01*
X53117424Y-100328642D01*
X53116250Y-100304750D01*
X53116250Y-99817250D01*
X53117424Y-99793358D01*
X53120934Y-99769697D01*
X53126746Y-99746493D01*
X53134804Y-99723971D01*
X53145032Y-99702347D01*
X53157329Y-99681830D01*
X53171579Y-99662617D01*
X53187643Y-99644893D01*
X53205367Y-99628829D01*
X53224580Y-99614579D01*
X53245097Y-99602282D01*
X53266721Y-99592054D01*
X53289243Y-99583996D01*
X53312447Y-99578184D01*
X53336108Y-99574674D01*
X53360000Y-99573500D01*
X54272500Y-99573500D01*
X54296392Y-99574674D01*
X54296392Y-99574674D01*
G37*
D16*
X53816250Y-100061000D03*
D15*
G36*
X59154142Y-106526174D02*
G01*
X59177803Y-106529684D01*
X59201007Y-106535496D01*
X59223529Y-106543554D01*
X59245153Y-106553782D01*
X59265670Y-106566079D01*
X59284883Y-106580329D01*
X59302607Y-106596393D01*
X59318671Y-106614117D01*
X59332921Y-106633330D01*
X59345218Y-106653847D01*
X59355446Y-106675471D01*
X59363504Y-106697993D01*
X59369316Y-106721197D01*
X59372826Y-106744858D01*
X59374000Y-106768750D01*
X59374000Y-107256250D01*
X59372826Y-107280142D01*
X59369316Y-107303803D01*
X59363504Y-107327007D01*
X59355446Y-107349529D01*
X59345218Y-107371153D01*
X59332921Y-107391670D01*
X59318671Y-107410883D01*
X59302607Y-107428607D01*
X59284883Y-107444671D01*
X59265670Y-107458921D01*
X59245153Y-107471218D01*
X59223529Y-107481446D01*
X59201007Y-107489504D01*
X59177803Y-107495316D01*
X59154142Y-107498826D01*
X59130250Y-107500000D01*
X58217750Y-107500000D01*
X58193858Y-107498826D01*
X58170197Y-107495316D01*
X58146993Y-107489504D01*
X58124471Y-107481446D01*
X58102847Y-107471218D01*
X58082330Y-107458921D01*
X58063117Y-107444671D01*
X58045393Y-107428607D01*
X58029329Y-107410883D01*
X58015079Y-107391670D01*
X58002782Y-107371153D01*
X57992554Y-107349529D01*
X57984496Y-107327007D01*
X57978684Y-107303803D01*
X57975174Y-107280142D01*
X57974000Y-107256250D01*
X57974000Y-106768750D01*
X57975174Y-106744858D01*
X57978684Y-106721197D01*
X57984496Y-106697993D01*
X57992554Y-106675471D01*
X58002782Y-106653847D01*
X58015079Y-106633330D01*
X58029329Y-106614117D01*
X58045393Y-106596393D01*
X58063117Y-106580329D01*
X58082330Y-106566079D01*
X58102847Y-106553782D01*
X58124471Y-106543554D01*
X58146993Y-106535496D01*
X58170197Y-106529684D01*
X58193858Y-106526174D01*
X58217750Y-106525000D01*
X59130250Y-106525000D01*
X59154142Y-106526174D01*
X59154142Y-106526174D01*
G37*
D16*
X58674000Y-107012500D03*
D15*
G36*
X59154142Y-108401174D02*
G01*
X59177803Y-108404684D01*
X59201007Y-108410496D01*
X59223529Y-108418554D01*
X59245153Y-108428782D01*
X59265670Y-108441079D01*
X59284883Y-108455329D01*
X59302607Y-108471393D01*
X59318671Y-108489117D01*
X59332921Y-108508330D01*
X59345218Y-108528847D01*
X59355446Y-108550471D01*
X59363504Y-108572993D01*
X59369316Y-108596197D01*
X59372826Y-108619858D01*
X59374000Y-108643750D01*
X59374000Y-109131250D01*
X59372826Y-109155142D01*
X59369316Y-109178803D01*
X59363504Y-109202007D01*
X59355446Y-109224529D01*
X59345218Y-109246153D01*
X59332921Y-109266670D01*
X59318671Y-109285883D01*
X59302607Y-109303607D01*
X59284883Y-109319671D01*
X59265670Y-109333921D01*
X59245153Y-109346218D01*
X59223529Y-109356446D01*
X59201007Y-109364504D01*
X59177803Y-109370316D01*
X59154142Y-109373826D01*
X59130250Y-109375000D01*
X58217750Y-109375000D01*
X58193858Y-109373826D01*
X58170197Y-109370316D01*
X58146993Y-109364504D01*
X58124471Y-109356446D01*
X58102847Y-109346218D01*
X58082330Y-109333921D01*
X58063117Y-109319671D01*
X58045393Y-109303607D01*
X58029329Y-109285883D01*
X58015079Y-109266670D01*
X58002782Y-109246153D01*
X57992554Y-109224529D01*
X57984496Y-109202007D01*
X57978684Y-109178803D01*
X57975174Y-109155142D01*
X57974000Y-109131250D01*
X57974000Y-108643750D01*
X57975174Y-108619858D01*
X57978684Y-108596197D01*
X57984496Y-108572993D01*
X57992554Y-108550471D01*
X58002782Y-108528847D01*
X58015079Y-108508330D01*
X58029329Y-108489117D01*
X58045393Y-108471393D01*
X58063117Y-108455329D01*
X58082330Y-108441079D01*
X58102847Y-108428782D01*
X58124471Y-108418554D01*
X58146993Y-108410496D01*
X58170197Y-108404684D01*
X58193858Y-108401174D01*
X58217750Y-108400000D01*
X59130250Y-108400000D01*
X59154142Y-108401174D01*
X59154142Y-108401174D01*
G37*
D16*
X58674000Y-108887500D03*
M02*
