M48
; DRILL file {KiCad (5.1.4)-1} date 10/19/2020 4:22:05 AM
; FORMAT={-:-/ absolute / inch / decimal}
; #@! TF.CreationDate,2020-10-19T04:22:05-07:00
; #@! TF.GenerationSoftware,Kicad,Pcbnew,(5.1.4)-1
; #@! TF.FileFunction,Plated,1,2,PTH
FMAT,2
INCH
T1C0.0157
T2C0.0276
T3C0.0579
%
G90
G05
T1
X1.215Y-4.015
X1.36Y-4.405
X1.4Y-3.93
X1.4152Y-4.3398
X1.485Y-4.545
X1.56Y-3.915
X1.5682Y-4.4054
X1.5914Y-3.95
X1.62Y-4.32
X1.755Y-3.89
X1.7652Y-4.4998
X1.77Y-4.31
X1.775Y-3.8
X1.8Y-4.27
X1.8376Y-4.03
X1.84Y-4.28
X1.87Y-3.6762
X1.94Y-3.995
X1.955Y-3.815
X1.995Y-4.28
X2.2394Y-4.331
X2.245Y-4.37
X2.245Y-4.47
X2.295Y-4.425
X2.54Y-4.305
X3.105Y-4.55
X3.115Y-3.805
X3.355Y-3.855
X3.435Y-4.53
X3.53Y-3.845
T3
X2.6625Y-3.5562
X2.7141Y-3.4988
X2.9109Y-3.4791
X2.9125Y-3.4562
X3.4125Y-3.5562
X3.4641Y-3.4988
X3.6609Y-3.4791
X3.6625Y-3.4562
X2.6625Y-4.3062
X2.7141Y-4.2488
X2.9109Y-4.2291
X2.9125Y-4.2062
X3.4125Y-4.3062
X3.4641Y-4.2488
X3.6609Y-4.2291
X3.6625Y-4.2062
T2
G00X1.2313Y-3.3264
M15
G01X1.2313Y-3.3736
M16
G05
G00X1.2313Y-3.5035
M15
G01X1.2313Y-3.5508
M16
G05
G00X1.5187Y-3.3264
M15
G01X1.5187Y-3.3736
M16
G05
G00X1.5187Y-3.5035
M15
G01X1.5187Y-3.5508
M16
G05
T0
M30
